<svg width="901" height="138" xmlns="http://www.w3.org/2000/svg">
  <g fill="#fb3b3b" fill-rule="evenodd">
    <path d="M559.26 31.56c.86 3.08 1.44 4.44 1.6 5.86 2.19 18.75 11.13 34.12 24.1 47.36 1.8 1.83 4.76 2.53 7.19 3.76.65-2.43 1.9-4.87 1.88-7.3-.17-23.13-.54-46.25-.9-69.38-.15-10.04.8-11.02 10.86-10.62 15.65.61 14.83.6 14.54 16.22-.54 29.94-.07 59.9.03 89.86.03 7.7.44 15.4.28 23.1-.15 7.56-2.9 9.35-9.52 5.8-19.3-10.34-38.66-20.7-50.64-40.24-.41-.67-1.34-1.03-3.26-2.45l-18.78 43.63c-8.6-8.55-17.4-16.16-24.76-24.96a167.26 167.26 0 0 1-18.13-26.75c-10.74-19.58-11.93-40.87-8-62.33 1.17-6.45 5.34-12.45 8.69-18.35 1.03-1.81 3.84-3.53 5.94-3.66 7.17-.45 14.38-.17 22.45-.17-3.52 4.65-6.97 8.35-9.43 12.61-9.38 16.26-8.99 33.38-2.84 50.42 2.59 7.18 6.5 14 10.58 20.5 3.37 5.37 5.97 5.03 9.05-.6 8.05-14.7 15.87-29.52 23.85-44.26 1.28-2.36 2.92-4.53 5.22-8.05M283.84 38.97c2.45-2.8 4.49-4.92 6.3-7.21C304.07 14 322 3.66 344.82 2.04c6.47-.46 8.45 1.94 8.4 8.3-.36 39.43-.37 78.87-.54 118.3-.04 8.54-1.12 9.53-9.59 9.32-17.73-.45-17.05 2.56-16.75-17.25.38-24.86.06-49.72-.15-74.58-.02-2.66-1.32-5.3-2.03-7.97-2.6.9-5.54 1.29-7.76 2.76-16.46 10.9-27.12 26.75-33.83 44.6-3 7.98-1.02 17.86-1.16 26.88-.1 6.38-.07 12.78.06 19.17.09 4.42-1.63 6.34-6.32 6.17-22.97-.86-19.88 3.22-19.92-19.45-.05-35.9-.08-71.82-.05-107.73 0-8 .73-8.58 8.84-8.51.89 0 1.77.02 2.65.03 14.78.2 14.87-2.53 14.8 15.3-.03 6.15.22 12.32.42 18.47.02.55.64 1.08 1.94 3.12M44.99 24.49c-22.88.5-22.88.5-21.07 21.8l.1 1.32c.28 3.62 2.05 5.37 5.71 4.05 11.4-4.12 22.93-8 34.06-12.75 2.8-1.2 4.34-5.39 6.46-8.2-3.34-2.08-6.45-5.2-10.07-5.97-4.86-1.03-10.11-.25-15.2-.25zM.09 70.4c0-19.38.15-38.76-.09-58.14C-.07 6.12 2 3.47 8.42 3.58c18.78.32 37.58-.02 56.35.47 6.54.17 13.13 1.6 19.52 3.17 21.39 5.26 21.81 30.7 10.71 41.1-4.66 4.37-10.81 7.42-16.71 10.17-6.18 2.87-6.54 3.41-2.3 8.44a42.69 42.69 0 0 1 6 9.4c8.57 18.36 16.96 36.8 25.37 55.23 2.21 4.85 1.1 6.16-4.42 5.94-5.73-.23-11.52-.69-17.19-.08-4.57.5-6.3-1.31-7.74-5.12-6.45-17.1-13.17-34.12-19.63-51.22-4.26-11.29-7.38-11.34-18.93-8.16-13.39 3.7-17.16 11.04-16.1 23.8.92 11.15.15 22.44.39 33.66.12 5.6-1.85 7.9-7.8 7.57C-2.39 136.9.34 136.43.22 122.6.08 105.21.2 87.81.2 70.41h-.1zM398.9 81.78c0 4.56 2.1 6.8 6.92 6.71 9.5-.17 19.02-.15 28.53-.04 5.94.07 7.43-2.86 5.85-8.02-4-13.06-7.71-26.22-12.26-39.1-3.6-10.24-12.46-15.27-22.73-14.64-4.6.28-6.8 1.94-6.64 6.83.25 7.92.06 15.86.06 23.8h.26c0 8.15-.02 16.3 0 24.46m-26.55-9.82c0-8.15-.07-16.29.01-24.43.13-12.32.39-24.65.56-36.97.09-5.66 2.5-8.28 8.6-8.02 9.92.43 19.88.06 29.82.3 10.9.26 21.08 3.6 27.12 12.8a202.36 202.36 0 0 1 17.07 32.46c4.25 10.1 6.7 20.96 9.81 31.52 5.04 17.09 9.98 34.21 14.95 51.32 1.28 4.4-.24 6.92-5 6.94-5.3.01-10.7.4-15.87-.43-2.33-.38-5.23-2.9-6.17-5.16-2-4.84-2.33-10.39-4.46-15.15-1.08-2.42-4.5-5.22-7-5.34-12.11-.6-24.27-.32-36.41-.42-3.86-.03-5.74 1.75-5.74 5.56 0 4.63-.14 9.26.08 13.87.24 5.04-1.79 7.38-6.97 7.14-4.4-.2-8.84-.23-13.25 0-4.4.22-6.41-1.16-6.37-5.97.2-20-.5-60.02-.78-60.02M672.43 81.78c0 4.56 2.1 6.8 6.92 6.71 9.51-.17 19.02-.15 28.53-.04 5.94.07 7.43-2.86 5.85-8.02-4-13.06-7.7-26.22-12.25-39.1C697.86 31.1 689 26.06 678.74 26.7c-4.6.28-6.8 1.94-6.64 6.83.25 7.92.07 15.86.07 23.8h.25c0 8.15-.02 16.3 0 24.46m-26.55-9.82c0-8.15-.07-16.29.01-24.43.14-12.32.39-24.65.57-36.97.08-5.66 2.5-8.28 8.58-8.02 9.93.43 19.9.06 29.83.3 10.9.26 21.08 3.6 27.12 12.8a202.43 202.43 0 0 1 17.08 32.46c4.24 10.1 6.7 20.96 9.8 31.52 5.04 17.09 9.98 34.21 14.95 51.32 1.28 4.4-.24 6.92-5 6.94-5.3.01-10.69.4-15.87-.43-2.33-.38-5.23-2.9-6.16-5.16-2-4.84-2.34-10.39-4.47-15.15-1.08-2.42-4.5-5.22-7-5.34-12.1-.6-24.27-.32-36.41-.42-3.86-.03-5.74 1.75-5.74 5.56.01 4.63-.14 9.26.08 13.87.25 5.04-1.79 7.38-6.97 7.14-4.4-.2-8.84-.23-13.25 0-4.4.22-6.41-1.16-6.37-5.97.2-20 .08-40.01.08-60.02h-.86M768.08 135.96c6-3.86 11.78-7.22 17.14-11.16 7.27-5.34 14.4-10.9 21.1-16.92 1.4-1.26 1.62-5.34.72-7.4-4.38-10.11-9.26-20-14.07-29.9-10.18-20.94-20.4-41.85-30.69-62.73-2.15-4.36-1.78-6.57 3.8-6.41 6.85.18 13.75-.47 20.55.08 2.42.2 5.77 2.31 6.8 4.46C804.8 29.6 815.78 53.4 826.9 77.15c.84 1.79 1.91 3.47 2.93 5.17 1.85 3.1 3.96 2.96 6.4.6 16.3-15.81 29.73-33.38 32.74-56.63.77-5.91-.47-12.21-1.58-18.18-.88-4.7.2-6.81 5.06-6.62 6.82.26 13.7.1 20.43 1.05 2.27.32 5.55 3.17 5.97 5.32 3.7 18.98 1.6 37.14-8.4 54.19-12.04 20.48-29.2 36.37-46.32 52.3-7.88 7.32-16.29 14.1-24.69 20.85a12.79 12.79 0 0 1-7.29 2.74c-13.9.14-27.82-.1-41.73-.29-.5 0-1-.7-2.34-1.69M171.6 3.31C165.34 15.36 159 26.2 153.98 37.6c-7.25 16.48-12.24 33.48-7.67 51.93 3.22 13.03 10.69 22.74 23.94 22.02a13.8 13.8 0 0 0 5.2-1.22c3.77-1.83 7.6-3.68 11.01-6.06 18.66-13.04 20.44-17.54 19.71-43.98-.46-16.93-.25-33.88-.56-50.82-.08-4.55 1.54-6.44 6.16-6.24 5.3.22 10.6.13 15.9 0 4.46-.1 6.33 1.69 6.26 6.32-.42 27.95-.76 55.91-.82 83.87-.02 5.76-1.43 9.96-6.34 13.46-9.5 6.78-18.16 14.8-27.93 21.1-33.21 21.44-70.06 7.74-77.98-34.68-5.68-30.38 3.7-57.39 17.42-83.62 2.25-4.3 5.8-6.43 10.72-6.38 7.45.06 14.89.01 22.6.01"/>
  </g>
</svg>
