<svg width="404" height="139" xmlns="http://www.w3.org/2000/svg">
  <g fill="#FFF" fill-rule="evenodd">
    <path d="M67.42 128.12a15.6 15.6 0 0 1-15.59-15.6 15.6 15.6 0 0 1 16.9-15.56 13.1 13.1 0 0 0 4.14 25.54 13 13 0 0 0 8.6-3.24 15.58 15.58 0 0 1-14.05 8.86m25.84-8.65c-1.56-5.25-14.2-21.44-16.85-25.86-.98-1.65-2.39-9.88-5.55-14.08-2.66-3.54-2.03-4.04-2.03-4.28 0-.52 6.36.07 6.5.05 1.51-.16 3.02-.9 4.25-.79 1.24.11 2.75.65 3.91 1.89.68.72 2.05 3.8 2.28 2.21.23-1.62-.2-2.9-.57-3.68-1.46-3.08-4.6-4.7-8.05-5.94-1.48-.54-5.56-.7-7.26.67-.84.68-1.28 1.64-1.9 2.48-.05.05-.89 1-1.34.85-.05.01.14-.84-.2-1.42a2.36 2.36 0 0 0-1.41-.95c-1.25-.06-2.9.26-3.88 1.14-1.8-2.06-5.53-3.38-7.37-4.17-4.1-1.76-13.1-.32-13.1-.32-1.15 4.73 7.49 7.47 10.96 7.62 1.69.08 3.07-.53 4.6-.7 1.36-.15 2.82-.01 4.2.24.08.26.2.52.35.8.28.47.66.79 1.08.97h-.01c-.47.24-3.99 2.23-6.04 5.92-2.33 4.2-4.68 9.83-5.47 11.49-1.48 3.12-9.79 16.39-11.55 18.29-.9.97-1.6 1.83-2.15 3.02-1.94 4.12.02 9.26 1.28 13.52.83 2.8 4.1 4.25 6.56 5.66 2.51 1.43 4.41 3.23 7.12 4 4.24 1.2 8.8.56 13.15.21 8.9-.7 19.13 1.76 24.37-7.48 1.84-3.25 5.25-7.55 4.12-11.36"/>
    <path d="M53.81 76.35C29.81 83.37.17 92.17.17 92.17s.1 4.4 2.27 3.3c2.17-1.1 18.36-5.77 18.36-5.77s5.66.16 6.16-.95c1.24-.63 11.74-4.01 25.33-8.22 1.3-1.2 4.08-3.35 5.74-4.18-.86-.44-2.96-.13-4.22 0M366.07 18.94c14.3-3.65 32.68-7.67 35.29-9.65 3.26-2.5 3.3-9.2.8-9.11-2.5.09-5.08 3.12-5.08 3.12s-21.22 6.73-33.54 10.26c-14.23 7.44-28.56 8.68-28.56 8.68l-3.78.43s-32.25 2.97-50.29 3.74c-12.17 2.43-29.87 1.98-29.87 1.98-6.38-.28-15.07-.02-27.34 1.14-6.58 1-40.22 3.14-40.22 3.14l-4.35-1.36s-2.92 1.82-1.8 2.52c1.14.7-11.9 3.73-11.9 3.73s-2.36-.53-1.9 1.5c-3.9.67-13.86 3.75-13.86 3.75s-16.47 13.92-22.32 14c-5.85.07-35.89 7.86-44.28 11.17l-1.6.42c1.17.84 2.58 1.43 3.87 2.14 18.74-5.53 35.03-10.08 36.22-9.69 2.83.92 6.52.27 10.52-1.26s22.39-14 22.39-14l28.02-7.77s43.66-6.56 65.36-4.94c0 0 18.76.23 40.99-1.8 12.27-.51 37.03-3.96 49.07-4.89 0 0 18.76-2.75 28.16-7.25"/>
  </g>
</svg>
