<svg width="573" height="562" xmlns="http://www.w3.org/2000/svg" xmlns:xlink="http://www.w3.org/1999/xlink">
  <defs>
    <path id="a" d="M0 57.46V.2h61.28v57.26H0z"/>
  </defs>
  <g fill="none" fill-rule="evenodd">
    <path d="M153.95 538.15c.28-1.37.33-2.02.54-2.6 2.89-7.75 2.47-15.52.06-23.26-.33-1.07-1.34-1.93-2.04-2.9-.74.82-1.7 1.53-2.18 2.48-4.54 9.06-9 18.15-13.46 27.25-1.93 3.95-2.5 4.14-6.33 1.99-5.96-3.35-5.64-3.18-2.42-9.21 6.16-11.58 11.94-23.37 17.86-35.07 1.52-3.01 2.9-6.1 4.49-9.07 1.56-2.92 2.99-3.07 4.85-.38 5.44 7.87 10.9 15.75 11.68 25.75.02.35.3.67.77 1.6l15.98-13.3c1.64 5.05 3.55 9.76 4.66 14.66a73.31 73.31 0 0 1 1.72 14.03c.28 9.77-3.5 18.32-9.29 25.91-1.74 2.28-4.55 3.8-7.03 5.44-.76.5-2.2.61-3.03.25-2.88-1.25-5.63-2.79-8.76-4.4 2.3-1.1 4.37-1.87 6.17-3.04 6.88-4.48 10.13-11.24 11.14-19.11a47.7 47.7 0 0 0-.04-10.1c-.24-2.76-1.32-3.15-3.64-1.56-6.05 4.14-12.04 8.37-18.07 12.53-.97.67-2.03 1.2-3.63 2.11M554.25 356.3c.9 1.36 1.55 2.47 2.3 3.5 5.85 7.95 8.1 16.7 6.1 26.5-.56 2.77-1.8 3.32-4.48 2.55-16.58-4.8-33.2-9.46-49.81-14.19-3.6-1.02-3.88-1.59-2.8-5.13 2.28-7.4.92-7.47 9.24-5 10.43 3.09 20.95 5.89 31.46 8.73 1.12.3 2.4.07 3.6.09-.08-1.2.1-2.48-.25-3.59-2.67-8.2-8.1-14.56-14.83-19.48-3.01-2.2-7.4-2.54-11.2-3.66-2.67-.8-5.37-1.54-8.08-2.24-1.88-.48-2.49-1.43-1.86-3.38 3.06-9.56.97-8.74 10.54-6.08 15.14 4.21 30.28 8.44 45.42 12.68 3.37.95 3.53 1.32 2.54 4.73l-.32 1.1c-1.82 6.2-.68 6.56-8.19 4.42-2.59-.73-5.21-1.36-7.83-2-.24-.06-.53.14-1.55.45M280.25 9.7c-9.98.22-9.98.22-9.2 9.55l.05.58c.12 1.59.9 2.35 2.5 1.77 4.97-1.8 10-3.5 14.85-5.58 1.23-.53 1.9-2.36 2.82-3.6-1.46-.9-2.82-2.27-4.4-2.6-2.11-.46-4.4-.12-6.62-.12zM260.66 29.8c0-8.49.07-16.98-.04-25.46-.03-2.7.87-3.85 3.68-3.8 8.19.13 16.39-.02 24.58.2 2.85.07 5.73.7 8.52 1.39 9.32 2.3 9.5 13.45 4.67 18-2.04 1.91-4.72 3.25-7.3 4.45-2.69 1.26-2.85 1.5-1 3.7a18.77 18.77 0 0 1 2.62 4.12c3.74 8.04 7.4 16.12 11.07 24.19.96 2.12.48 2.7-1.93 2.6-2.5-.1-5.03-.3-7.5-.03-2 .21-2.75-.58-3.38-2.24-2.8-7.5-5.74-14.95-8.56-22.44-1.86-4.95-3.22-4.97-8.26-3.57-5.84 1.61-7.48 4.83-7.02 10.42.4 4.88.06 9.83.17 14.74.05 2.46-.8 3.47-3.4 3.32-8-.46-6.81-.67-6.86-6.72-.06-7.62-.01-15.25-.01-22.87h-.05zM400.51 522.53c-.82-1.82-2.05-2.35-3.96-1.45a414.11 414.11 0 0 1-11.36 5.09c-2.37 1.03-2.44 2.47-.9 4.25 3.93 4.5 7.76 9.12 11.86 13.46 3.27 3.45 7.7 3.89 11.67 1.8 1.79-.92 2.37-1.98 1.43-3.9-1.51-3.13-2.86-6.34-4.27-9.51l-.1.04c-1.46-3.26-2.9-6.52-4.37-9.78m12.33-.8c1.46 3.26 2.94 6.5 4.36 9.78 2.14 4.95 4.24 9.92 6.37 14.88.97 2.28.48 3.76-2 4.74-4.02 1.6-7.93 3.51-11.93 5.18-4.39 1.84-9.04 2.32-13.09-.3a88.68 88.68 0 0 1-12.6-9.94c-3.48-3.28-6.4-7.18-9.52-10.85-5.06-5.94-10.08-11.91-15.11-17.87-1.3-1.54-1.14-2.82.75-3.67 2.11-.95 4.19-2.06 6.4-2.65 1-.27 2.6.23 3.38.97 1.66 1.58 2.78 3.74 4.48 5.26.86.78 2.72 1.29 3.74.9 4.93-1.92 9.73-4.2 14.58-6.32 1.54-.67 1.97-1.72 1.3-3.25-.84-1.84-1.6-3.72-2.52-5.53-.99-1.97-.6-3.27 1.5-4.1a59.7 59.7 0 0 0 5.29-2.35c1.71-.87 2.76-.68 3.6 1.25 3.5 8.04 7.1 16.02 10.68 24.02l.34-.15" fill="#c4a747"/>
    <g transform="translate(0 318.36)">
      <mask id="b" fill="#c4a747">
        <use xlink:href="#a"/>
      </mask>
      <path d="M35.3 39.85c1.95-.41 2.72-1.5 2.26-3.56-.93-4.05-1.76-8.11-2.56-12.19-.5-2.54-1.9-2.92-3.96-1.78-5.24 2.88-10.55 5.64-15.66 8.74-4.07 2.46-5.44 6.69-4.25 11.02.53 1.95 1.43 2.74 3.52 2.23 3.37-.82 6.79-1.45 10.19-2.16l-.02-.1 10.47-2.2m-1.83 12.23c-3.5.73-6.98 1.49-10.48 2.18C17.7 55.31 12.4 56.3 7.1 57.33c-2.44.47-3.78-.33-4.2-2.95-.7-4.28-1.75-8.5-2.54-12.78-.86-4.68-.33-9.33 3.07-12.74 3.77-3.76 8-7.17 12.4-10.2 3.94-2.71 8.37-4.73 12.62-7C35.32 7.96 42.22 4.32 49.1.66c1.77-.94 2.99-.51 3.42 1.52.48 2.27 1.12 4.53 1.23 6.82a4.2 4.2 0 0 1-1.66 3.1c-1.9 1.29-4.25 1.92-6.1 3.26-.94.68-1.83 2.4-1.66 3.47.82 5.23 2.02 10.4 3.06 15.6.33 1.65 1.27 2.3 2.9 1.95 1.98-.42 3.98-.77 5.93-1.27 2.14-.56 3.32.1 3.68 2.33.31 1.9.7 3.8 1.18 5.67.5 1.86.08 2.84-1.99 3.26-8.58 1.7-17.15 3.54-25.72 5.33l.08.37" fill="#c4a747" mask="url(#b)"/>
    </g>
    <path d="M83.23 167.02c.3-3.1.71-6 .82-8.9.13-3.94.16-7.9-.09-11.82-.05-.83-1.39-2.01-2.34-2.27-4.65-1.25-9.37-2.27-14.07-3.32-9.94-2.22-19.88-4.42-29.83-6.58-2.08-.46-2.73-1.18-1.17-3.05 1.92-2.3 3.57-4.83 5.6-7a4.21 4.21 0 0 1 3.37-1.12c11.19 2.55 22.33 5.27 33.48 7.93.84.2 1.71.3 2.57.41 1.57.21 2.1-.55 1.94-2.03-1-9.87-3.38-19.25-10.54-26.61-1.82-1.87-4.31-3.17-6.66-4.4-1.85-.99-2.28-1.93-.9-3.54 1.94-2.26 3.75-4.66 5.9-6.7.72-.7 2.59-1.04 3.44-.6 7.51 3.9 13.18 9.56 16.3 17.63 3.77 9.7 4.56 19.89 5.38 30.08.38 4.69.42 9.4.46 14.12 0 1.08-.38 2.39-1.04 3.24-3.72 4.8-7.58 9.48-11.41 14.19-.14.17-.51.15-1.21.34M520.56 118.06c-5.86.96-11.32 1.56-16.63 2.79-7.68 1.77-14.94 4.47-20.24 10.9-3.73 4.53-5.2 9.68-1.5 14.14.5.59 1.11 1.15 1.79 1.5 1.62.84 3.27 1.7 5 2.27 9.43 3.12 11.48 2.57 20.57-4.6 5.83-4.59 11.83-8.94 17.7-13.48 1.58-1.22 2.66-1.15 3.8.52 1.3 1.92 2.71 3.75 4.14 5.58 1.2 1.53 1.05 2.65-.59 3.84a2920.65 2920.65 0 0 0-29.67 21.64c-2.02 1.5-3.86 2.1-6.38 1.3-4.85-1.56-9.92-2.5-14.68-4.27-16.18-6.02-20.96-22.5-8.13-36.37 9.2-9.94 21.12-13.72 33.9-15.77 2.1-.33 3.77.35 5.04 2.09 1.91 2.62 3.87 5.22 5.88 7.92" fill="#c4a747"/>
  </g>
</svg>
