<svg width="342" height="396" xmlns="http://www.w3.org/2000/svg" xmlns:xlink="http://www.w3.org/1999/xlink">
  <defs>
    <path id="a" d="M.48.32h73.86v58.85H.48V.32z"/>
    <path id="c" d="M0 16.98V.48h49v16.5H0z"/>
  </defs>
  <g fill="none" fill-rule="evenodd">
    <path d="M186.14 195.18h.03l.01-.03h-.04v.03M136.57 287.2c-.14-.88-.7-1.79-.53-2.72.16-.94-.23-1.12-1.03-1.05-.23.04-.47.24-.61.43-.51.68-1.13 1.3-1.5 2.1-.45 1-.9 2-1.5 2.95-1.06 1.63-2.6 2.8-3.84 4.22-1.55 1.76-3.08 3.53-4.7 5.2-1.73 1.79-3.69 3.37-5.34 5.21-3.34 3.73-6.72 7.4-10.16 11.04-4.88 5.14-9.58 10.44-14.39 15.65-1.83 1.98-3.61 4.01-5.86 5.58-.65.45-1.25.99-1.81 1.53-.57.55-.77 1.3-.42 1.97.31.6 1.02.6 1.66.47.44-.1.85-.04 1.28.1 1.18.35 1.6.17 1.96-.98.32-.99.59-2 1.23-2.84 1.2-1.57 2.4-3.13 3.63-4.68 2.28-2.87 5.01-5.35 7.46-8.07 3.12-3.48 6.42-6.8 9.67-10.17 4.02-4.17 8.25-8.15 12.29-12.31 1.3-1.34 2.67-2.67 3.77-4.13 1.45-1.93 3.9-4.57 4.64-5.5.73-.91 1.25-1.9 2.63-2.3 1.39-.38 1.68-.26 1.47-1.7" fill="#FFF"/>
    <path d="M196.02 197.26a9.71 9.71 0 0 0-3.6-3.75c-.36-.2-.3-.2-1-.45-.72-.23-1.32 1.17-1.11 1.79.2.62.03.96-.3 1.4-.33.43-.79 1.14-1.35.71a4.86 4.86 0 0 0-2.4-1.13c-1.15-.19-3.53.47-3.98.56-.77.16-1.5.41-2.17.84-.23.14-.98 1.19-1.12 1.58-.22.62-.89 2.38-.94 2.7-.1.63-.23 1.41.38 1.87 1.11.82 1.03 1.93.86 3.06-.15 1-.34 2-.55 3-.73 3.46-1.42 6.94-2.58 10.3-1.5 4.3-10.79 26.7-11.61 28.12-2.2 3.82-4.47 7.58-6.8 11.32-2.47 3.96-4.66 8.1-7.84 11.6-2.16 2.36-4.43 4.26-7.85 4.82-3.73.61-3.62 4.88-1.64 6.15 1.98 1.28 5.62 3.73 7.49 3.53 1.4-.15 2.76-.55 3.5-1.78.62-1.04 2.34-2.78 2.75-4.13.41-1.36 2.28-5 3.66-7.4a556.1 556.1 0 0 0 13.87-26.13 130.68 130.68 0 0 0 8.46-20.64c1.43-4.7 3.08-9.3 4.7-13.93.27-.78 1.4-3.2 1.84-3.78.44-.57.67-1.18 1.2-1.22.53-.05 2.2-.67 3.25-1.4.5-.35 1.04-1.27.22-1.89-.46-.35-.26-.83.13-1.07.8-.5 1.55-1.42 2.69-.61.31.22.65.11.97-.13 1.08-.84 1.54-2.72.87-3.9M145.24 287.57c-.63-.79-1.34-1.5-2.13-2.15-.43-.35-2.25-2.05-2.73-2.49-1.16-.66-2.46-.7-3.24-.14-.82.59.09 1.92 1.01 3.25s1.04 1.44.3 2.53c-.72 1.1-8.27 10.4-9.71 11.87-3.37 3.44-7 6.64-10.37 10.08-2.06 2.1-20.74 21.14-21.59 22.16-1.02 1.22-6.6 6.1-4.39 7.02.07.03 2.27.98 3.42 1.09 1.24.12 2.12-.48 2.48-1.52.77-2.23 2.07-4.16 3.38-6.08 1.34-1.96 9.21-10.54 11.87-12.78 2.92-2.47 5.92-4.83 8.68-7.49 2.3-2.23 17.21-17.04 18.48-18.08a27.87 27.87 0 0 0 4.67-5.2c.54-.72.38-1.43-.13-2.07M242.28 141.37c-3.29-1.43-6.6-2.82-9.88-4.27-.59-.26-1.31-.41-1.69-1.11.63-.25 1.05.1 1.52.26 1.48.47 2.86 1.28 4.47 1.27.32 0 .77.2.9-.27.14-.48-.15-.83-.6-.98-1-.35-1.98-.72-3-1-4.68-1.32-9.41-2.48-14.03-4.02-1.21-.4-2.46-1.02-3.68-1.56-.93-.41-1.83-.87-2.74-1.3-1.14-.55-2.39-2.26-3.1-2.08-.72.18-.2 1.86-.07 2.17.62 1.4 5.83 4.48 6.2 4.64 2.05.92 4.06 1.94 6.07 2.97a46.8 46.8 0 0 0 9.32 3.37c3.33.9 6.3 2.7 9.52 3.86.77.28 1.47.45 1.85-.5.4-1.02-.43-1.18-1.06-1.45M232.81 100.54c2.67.5 5.36.92 8.04 1.36 1.99.34 4 .58 5.86 1.48 1.16.57 2.15 1.38 3.12 2.23.24.22.56.48.94.31.3-.13.26-.44.27-.72-.15-1.6-1.23-2.69-2.43-3.38-2.9-1.68-6.12-2.43-9.45-2.72-1.97-.17-3.95-.37-5.92-.58-.8-.08-1.77-.17-1.99.7-.25 1.05.86 1.19 1.56 1.32M228.48 103.69c-.02.48.35.66.78.68.96.04 1.67.59 2.37 1.16.27.23.54.4.9.48 2.11.52 4.22 1.08 6.34 1.57 4.44 1.03 9.17 1.03 13.18 3.66.68.45 1.09.01 1.06-.78.01-1.18-.5-1.79-2.02-2.56-2.53-1.28-5.26-1.9-8-2.54-3.63-.84-7.44-.7-11.03-1.87-.84-.27-1.75-.32-2.64-.43-.46-.06-.91.08-.94.63M226.68 108.16c.33.8.8 1.62 1.9 1.88 4.31.99 8.6 2.18 12.93 3.09 3.96.83 7.72 2.08 11.12 4.28.4.26.73.26.79-.21.1-.8.22-1.69-.65-2.2-2.64-1.55-5.18-3.32-8.27-3.95-1.18-.23-2.34-.59-3.5-.9a123.2 123.2 0 0 0-13.39-2.66c-.38.2-1.33-.28-.93.67M224.85 112.89c-.16.26.02.5.2.59 1.13.48 1.73 1.63 2.76 2.2 1.09.6 2.23 1.1 3.45 1.41 3.95 1.03 7.89 2.13 11.86 3.1 3.21.77 5.99 2.36 8.57 4.34 1.38 1.05 1.61 1.04 2.29-.59.5-1.22.39-1.5-.83-2.05-.67-.31-1.34-.63-2-.96-2.12-1.06-4.07-2.44-6.39-3.1-4.23-1.2-8.43-2.49-12.67-3.66-2.17-.6-4.35-1.22-6.5-1.48-.33 0-.59-.03-.74.2M232.12 94.82c1.59 1.22 3.44 1.46 5.37 1.64 3.62.33 7.5.01 10.29 3.43.23-1.47-1.12-3.87-2.24-4.32a36.4 36.4 0 0 0-11.59-2.43c-.5-.03-1.01-.07-1.5.1-.4.12-.92.16-.98.68-.06.44.34.66.65.9M222.31 351.18c1 .32.85-2.66 2.86-8.86.96-2.98 2.74-6.75 3.87-10.65 1.52-5.23 2.94-10.89 4.77-17.1 1.26-4.26 2.42-8.57 3.4-12.55 2.2-8.84 4.56-12.48 3.44-12.88-1.12-.39-5 12.49-9.58 28.19-4.35 14.87-9.75 33.53-8.76 33.85" fill="#FFF"/>
    <path d="M227.79 359.26c.64.44 1.52.18 2.16-.27.24-.17.39-.5.64-1.24.42-1.25.9-1.55.77-4.58a21.6 21.6 0 0 1 .22-4.43c1.46-8.77 4.14-17.19 7.29-25.47a165.6 165.6 0 0 0 3.9-11.64c1.14-3.84 2.35-7.66 3.55-11.5 1.26-4.02 5.09-14.46 5.31-15.61.31-1.63.02-2.9-2.26-2.1-1.23.44-5.63-1.01-7.04-.85-1.88.21-2.55 3.75-1.4 4.5 1.17.77 2.59 2.02 2.62 3.07.04 1.06-5.79 25.05-7.78 31.63-2.1 6.95-9.22 25.68-9.43 27.28-.08.6-.22 2.36-.7 3.53-.26.63-.6.64-.89.85-.81.62-.24.5-2.17.63-.6.04-1.27 1.04-1.46 1.65-.42 1.41.31 1.9 2.34 2.72 0 0 1.89.18 4.33 1.83M239.96 373.14c.28-.3 1.15-.23 1.38-.24.23 0 1.65.4 2.4.63 1.58.51 2.9 1.5 4.34 2.28.75.4 1.25.93 1.57 1.54.16.3.62 1.95 1.5 2.23.73.23 7.71-.2 8.84.33 1.08.5 2.3.34 3.36.93.44.25.94 0 1.25-.37.5-.62 1.07-.92 1.92-.94.9-.03 1.4-.7.56-1.36-1.91-1.53-4.29-2.22-6.49-3.23-.04-.02-4.4-.78-6.66-.68a6.75 6.75 0 0 1-4.45-1.77c-2.45-2.1-5.76-3.1-7.55-6.04-.14-.23-.4-.4-.64-.54-2.02-1.24-4.29-2-6.48-2.74-1.31-.44-2.53-.8-3.66-1.65-1-.77-4.16.34-4.99.06-1.3-.45-2.66-.66-3.42-2.16a4.8 4.8 0 0 0-2.8-1.49 3.42 3.42 0 0 0-2.45.6c-1.03.67-.84 2.44-.54 3.17.19.44.43.87.1 1.3-.4.53-.98.52-1.54.43-1.02-.16-1.76-.8-2.47-1.5-1.01-1.02-2.38-1.12-3.12-.33-1.4 1.47-2.02 5.37-.91 7.1.32.5 1.56 3.91 5.69 4.88.58.13 7.54.24 11.44-6.4 1.52 0 2 4.66 3.38 4.98 3.33.8 9.47 2.02 10.44.98M220.09 189.58c-.51-2.3-1.95-4.3-2.3-6.6-1.1-7.1-4.7-5.72-6.29-6.4-1.37-.59-2.12-3.58-2.82-5.32a31.84 31.84 0 0 1-1.21-3.58c-.2-.76-.48-2.73-1.23-3.23s-2.75-.54-3.1.07c-.7 1.28.47 2.45 1.1 3.62.7 1.33.37 3.18.46 4.82.05 1-.9 7.07.1 7.7.99.64 2.1.27 3.1 1.04 1.02.76 1.1 1.86 1.13 3.64a6.51 6.51 0 0 1-1.1 3.95c-.89 1.42-3.55.44-4.45 1.27-.1.1-.58 1.49-.53 2.73.07 1.5-.24 2.91-1.5 3.29-1.27.37-1.17-.92-3.13-.56-.63.32-.88.79-.8 1.52.13 1.16.22 2.35-.25 3.46a3.7 3.7 0 0 0 .2 3.38c.1.18 1.24.79 1.99 1.02.59.18 2.7.25 3.15.16.4-.08 1.87-.68 2.3-1.2.45-.51.45-1.78.62-2.69.22-1.23.9-1.87 2.13-1.9 1.42-.04 2.3-.8 2.98-1.92.2-.33.38-.68.56-1.03.97-1.76 2.76-2.08 4.47-2.4.85-.16 2.1-.58 3.01-.94.47-.19 1.6-.86 1.68-2.5-.06-.46-.17-.93-.27-1.4" fill="#FFF"/>
    <path d="M206.71 183.23c-.95-.53-3.03-.01-3.92-.93-.9-.92-.14-2.1-.14-5.85.01-3.66 1.06-6.3-1.15-9.49-.91-1.31-3.7-.38-4.84.33-1.51.95-3.01 1.9-4.34 3.12-1.6 1.48-3.35 2.83-4.03 5.01-.3.97-5.94 6.38-6.12 6.75-.03.06-1.87 2.37-2.97 4.49-.8 1.55-1 3.01-.82 3.36a8.88 8.88 0 0 0 2.77 3.01c1.29.75 2.88.86 5.03.39 1.83-.4 3.55-1.85 4-1.98 1.53-.44 4.61 1.55 5.49 2.5.82.87 1.8 1.5 3.09.8.33-.18.69-.07 1.02.06.33.14.87.29 1.4-.05.52-.34.44-1.25.53-1.94.1-.7-.15-2.58-.1-2.9.1-.61.48-.95 1.08-1.06.46-.1 2.37-.05 3.2-.12.8-.06 1.36-1.24 1.45-2.34.13-1.53.33-2.62-.63-3.16M253.39 272.34a5.6 5.6 0 0 0-1.7-2.18c-1.62-1.36-3-2.94-3.97-4.85-.71-1.4-3.14-7.39-6.85-13.63-3.18-5.35-15.85-23.34-19.61-27.62-3.12-3.56-14.08-14.45-14.88-15.53-.77-1.05-.3-2.11-.69-2.34-.8-.46-1.54 1.75-3.4 1.78-1.94.04-3.06-1.4-3.42-.33-.1.33-.95 2.39 0 3.92.93 1.53 3.66 2.53 4.18 2.38.67-.15.57-1 .88-1.28.47-.43 1.2-.24 1.61.27.8.98 14.28 15.14 20.82 24.06 5.54 7.55 10.19 14.6 10.74 15.37 1.33 1.84 6.45 10.59 8.17 20.22.35 1.97-.19 3.48-.37 4.26-.09.45-1.22.72-1.35 1.48-.1.55.69 1.58 1.06 2.05.78.98 2.97 1.22 3.95 1.2 2.38-.06 4-1.95 5.17-4 .23-.4.43-.63.64-1.25.36-1.1-.84-3.65-.98-3.98M212.62 165.4c-.43-.44.02.05 0 0" fill="#FFF"/>
    <path d="M214.33 166.23c-.78-.2-1.28-.39-1.71-.83.02.05-.43-.44 0 0-.63-.85-1.97-5.82-4.1-7.58-.16-.05-.33-.14-.48-.19a5.01 5.01 0 0 0-1.72-.3 2.68 2.68 0 0 0-2.6 2.26c-.04.28-.08 1.61.85 2.15.7.41 1.32.3 2.7.36 1.39.07 1.59 3.52 1.72 4.03.13.51.89 3.29 1.71 4.13.83.83 1.57 1.57 2.35 1.97.78.4 1.8.8 3.58 1.26.37.1.58-.2.68-.5a15.4 15.4 0 0 1 1.91-3.87c.5-.88-1.47-1.42-4.89-2.89M218.06 149.15c.3-.62-1.64-.92-2.1-1.23-.74-.5-1.87-2.14-2.15-2.44-.75-.83-1.75-1.92-3.67-1.42-.86.23-1.29.65-1.4 1.47-.09.62-.18 1.24-.2 1.86-.02.74.26 1.1 1.13 1.04 1.04-.08 1.53.22 3.03.67 1.49.44 5.26.4 5.36.05M222.04 159.5c-1.19-.42-3.75-.48-4.7-.67-.95-.2-2.33-1.33-3.93-1.17-1.45.15-2.23 1.52-1.73 2.1.5.59 3.1 3.63 3.52 3.78 1.52.6 3.07 1.14 4.62 1.66.53.18 1.16.26 1.26-.55.16-1.4.82-2.59 1.47-3.78.37-.67.17-1.14-.51-1.38M223.25 151.5c-.7-.08-2.25-.4-4.07-.35-1.28.04-2.7 1.42-4 1.42-2.5 0-6.11-1.18-6.8-1.24-.8-.06-1.42.07-1.63.94-.27 1.12-1.16 2.24-.12 3.4.25.29.63.27.98.32.24.03 2.62.22 5.02.04 2.24-.16 4.51-.7 5.07-.67.42.01.84.13 1.26.21 1.19.23 2.37.47 3.56.68.76.13 1.2-.12 1.13-1-.06-.77-.13-1.57.32-2.27.58-.9.09-1.37-.72-1.47M238.38 146.27c-1.6-.7-6.43-2.43-6.27-3.2.15-.8.16-1.29-.48-1.47-2.43-.7-4.86-1.44-7.3-2.12-1.58-.44-3.42-.8-4.46-1.88-1.14-1.18-2.53-1.02-3.72-1.65-1.7-.89-3.26-1.96-4.71-3.22l-.37-.32c-.22-.18-.53-.58-1.16.11-.53.58.35 1.32.55 1.54.29.32.32.65-.07 1-2.08 1.77-.58 3.23-.52 3.32l.06.1c.03.05.07.1.11.13l-.11-.13c.3.5 1.21 1.85 1.88 2.42 2.94 2.83 10.89 6.3 11.27 6.5 1.27.67 2.42 1.59 3.86 1.92.44.1.88.1 1.15-.33.32-.53-.17-.75-.47-1.03-.18-.15-.38-.28-.56-.42-4.07-3.08-8.59-5.48-12.7-8.5-.23-.16-.71-.2-.51-.62.2-.42.6-.27.92-.11a215.01 215.01 0 0 0 22.67 9.93c.76.28 1.44.2 1.78-.58.34-.76-.23-1.12-.84-1.4M251.4 128.37c-.17-.89-.82-1.31-1.59-1.56-2.44-.79-4.9-1.58-7.35-2.32-4.56-1.37-9.24-2.27-13.77-3.72-1.77-.57-3.56-1.18-5.44-1.34-1.08-.08-1.64.87-1.03 1.93.18.3.51.52.68.59 2.42 1 4.95 1.65 7.47 2.32 2.45.65 4.78 1.69 7.31 2.03 2.4.33 4.68 1.18 7.06 1.66 1.71.34 3.37.96 4.91 1.82.5.28 1.08.42 1.54.02.44-.37.3-.93.2-1.43M247.32 135.54c-.08-.83-.7-1.08-1.33-1.28-3.24-1.02-6.23-2.65-9.41-3.83-1.39-.52-2.8-.97-4.14-1.6a80.99 80.99 0 0 0-10.41-3.84l-.4-.12c-.61-.2-2.6-.93-2.96-1.07-2.85-1.13-5.7-2.26-8.41-3.67-.37-.19-1.07.37-.97 1.36.05.55.44 1.67.57 1.74 2.9 1.61 6.05 2.65 9.11 3.85 2.41.95 4.9 1.76 7.3 2.75 6.34 2.63 12.84 4.82 19.29 7.15 1.22.44 1.88-.15 1.76-1.44M218.1 119.19c-1.92-.8-3.47-1.4-7.67-4.14-.62-.3-1.46-.47-1.73.5-.27.95.22 2.41 1 2.67.8.26 4.5 1.51 6.77 2.24.6.2 1.25.33 1.93.06.23-.47.51-.93-.3-1.33M222.48 62.45c-.56-.44-2.37.23-3.6.62-1.16.37-2.1.95-2.25 1.06-.24.2-.44.45-.7.6-.39.24-1.06 1.4-1.54 1.64-.5.22-1.48 1.34-1.44 1.8.04.46.4 1.1 1.18.84a5.59 5.59 0 0 0 1.46-1.47s.53-.65 1.16-1.22c.3-.26 2.39-1.36 2.76-1.47.23-.07 3.16-.91 3.27-1.29.11-.37.27-.68-.3-1.11M223.54 66.4c-.72-.28-4.41.46-4.94.78-.53.33-.93 1.4-1.74 1.65-1.43.44-1.22 1.05-1.06 1.48.04.11.69.64 1.52.38 1.16-.35 2.69-1.57 3.56-1.84.93-.29 2.32-.08 3.06-.22 1.04-.2 1.27-.7 1.27-.92.03-.6-.94-1.03-1.67-1.31M221.69 85.85l.2-.4c.08-.4.18-.82.3-1.23a7.78 7.78 0 0 0-2.29-1.14c-.5-.13-2.71-.48-4.68-.43-1.99.05-3.72.5-3.96.62-.57.31-.74 1.21-.61 1.6.08.27.35.66 1.2.62 1.48-.1 1.79-1.2 4.5-.84 1.1.15 3.02 1.05 4.27 1.6.44.04.86-.04 1.07-.4M209.33 110.09c-.62-.3-1.23-.49-1.86-.01-.17.12-1.2.69-1.39 1a2.67 2.67 0 0 0-.06 1.67c.17.35 1 .34 1.75.25.33-.03 1.12.04 1.56-.33.59-.49.8-1.46.74-1.65-.1-.33-.39-.76-.74-.93M208.55 99.62c0-.5-.19-1.13-.51-1.25-.32-.11-.74 1.24-.88 1.39-.31.31-.89.43-.76 1.04.09.42.15.9.62 1.06.4.13.72.05.96-.22.23-.27.56-1.51.57-2.02M208.28 103.17c-.35 0-.88.66-1.56 1.82-.44.75-.72 1.59-1 2.3-.23.55-.37 1.51.13 1.58.5.07 1.34-1.04 1.49-1.2.57-.6 1.15-.86 1.46-1.3.31-.44.4-1.41.31-2.14-.12-.97-.41-1.06-.83-1.06" fill="#FFF"/>
    <path d="M235.6 80.39c-.36-.75-1.92-1.13-3-1.67-1.72-.88-3.79 2.53-4.91 3.4a36.31 36.31 0 0 0-3.54 3.14c-.72.75.2 2.68-1.34 3.06-2.4.6-4.89-2.04-7.12-2.17-2.12-.13-5.52.98-6.41 4.5-.53 2.06.78 7.23.83 7.92.06.7 1.06 11.48 1.02 11.22-.04-.18.42 2.08 1.25 3.59a6.76 6.76 0 0 0 4.7 2.88c1.07.13 3.85 0 4.9-2.32.83-2.6 1.52-5.8 2.18-7.54 1.44-3.82 2.36-7.86 5.28-10.97.43-.45.77-1.96.72-2.47-.05-.45-1.95-1.6-1.84-3.19.12-1.57-.05-2.28 1-4 1.04-1.74 4.1-.38 4.93-.94.97-.66 1.7-3.7 1.34-4.44M225.44 72.63c.74-.42.9-.94.75-1.5-.05-.03-.1-.07-.12-.1-.59-.56-3.31-.16-4.48-.1-1.17.07-4.87.4-4.89 1.81 0 .8 1.68.1 3.63.07 1.02-.01.92.26 1.98.36a5.4 5.4 0 0 0 3.13-.54M231.09 75c-1-.47-2.38-1.07-3.4-1.35-1.03-.28-3.45.72-3.6 1.72-.16 1 2.98 1.26 3.47 1.23.48-.04 1.44-.22 2.27 0 .83.2 4.71 1.9 5 .95.28-.94-2.46-1.94-3.74-2.55M225.3 78.17c-.26-.09-1.45.04-2.53-.71-1.12-.79-2.15-2.47-3.08-2.6a8.13 8.13 0 0 0-2.46-.15c-.84.1-1.31.26-1.75.92-.27.4-.48.85-.8 1.23-1.04 1.1.9 1.24 1.82 1.1 1.4-.22 3.08-.45 4.12.1.33.17.57.63.77 1.05a4.81 4.81 0 0 0 4.77.87c1.08-1.36-.31-1.61-.87-1.8" fill="#FFF"/>
    <path d="M222.95 82.04c-.23-.1-1.93-.62-2.27-1-.43-.47-1.38-1.65-1.88-1.8-.5-.17-1.88.04-3.4.1-1.34.07-1.97-.24-2.22-.05-.26.2-1.45 1.24-1.47 2.1-.01.86 3.33-.07 3.98-.04.3.01 1.13-.13 2.42.14 1.47.31 4.2 1.4 4.44 1.29.02-.02.44 0 .53-.14.12-.16.1-.5-.13-.6M293.1 73.51c-.3-.27-1.67-1.1-2.03-1.31-.99-.61-2.81-4.01-4.3-4.53a4.4 4.4 0 0 1-2.6-3.43c-.01-1.06-1.79-2.5-2.58-1.76-.8.73-.62 1.74.24 2.36 1.52 1.1 2.22 2.7 3 4.3 1.55 3.15 4.3 4.83 7.52 5.86.4.13 1.05.41 1.27-.2.15-.44-.18-.97-.53-1.29M295.72 71.02c-1.84-1.58-2.53-3.96-4.07-5.75-2.21-2.56-2.92-6.29-6.27-7.94-.46-.23-1.47-.04-2.06.81-.6.85.19 2.04.52 2.73.34.7 2.14 2.07 2.42 2.25.92.6 1.62 1.4 2.03 2.43.2.47.48.8.93 1.07a6.83 6.83 0 0 1 3.15 3.75c.52 1.67 4.45 4.08 6.1 3.53.22-.08-2.5-2.67-2.75-2.88M298.91 78.53c-1.2 1.06-1.13 2.99.48 4.4a6.5 6.5 0 0 1 1.87 2.4c1.24 3.1 2.8 6.06 3.8 9.25 1.15 3.6 2.7 7.05 4.56 10.33 1.72 3.03 3.74 5.9 5.3 9.03 0 0 .45 2 1.65 2.85.88.62 2.46.35 2.8-.84.32-1.19-2.72-6.44-2.97-6.77-1.1-1.46-6.46-11.6-7.83-15.28-1.83-4.95-3.74-14.35-4.2-15.2-.46-.85-1.2-1.3-2.38-1.34-1.43-.05-1.87.1-3.08 1.17M306.3 68.84c.5-.32.68-1.55.24-2.79-.2-.54-.83-1.14-1.07-1.57-.28-.5-.35-1.13-.44-1.71-.35-2.34-.78-5.59-1-7.03-.23-1.44-1.34-2.82-2-2.84-.66-.02-1.12.46-1.04 1.59.5 2.96 2.11 7.49 2.18 8.87.02.54.11 2.23.64 3.28.82 1.6 2.04 2.48 2.48 2.2M301.54 65.2c-.31-.79-.28-1.69-.53-2.5-.9-2.97-.92-6.16-2.64-8.9v-.02c-.42-.43-.74-1.22-1.7-1.18-.98.05-.27 4.59-.13 5.03.2.66.55 1.47.84 1.94.3.48.87 1.16 1.23 1.93.2.43.36.89.5 1.37.15.53-.06 1.67.52 3.37.42 1.22 1.76 2.35 2.36 3.6.6 1.27 1.98 2.8 2.84 2.5.87-.3-.12-2.41-1.33-3.73-1.21-1.34-1.89-3.22-1.96-3.4M300.94 70.84a12.46 12.46 0 0 0-2.03-3.1c-1.33-.98-1.79-1.86-1.7-3.56.07-1.36.43-2.31-1.36-3.04-.18-.07-1.22-3.79-2.4-5.24-1.13-1.39-2.05-1.59-2.81-1.31-.77.27-1.96 2.18-1.28 3.12.97 1.37 2.86 2.76 3.66 4.22.44.82.2 2.08.62 2.92.35.69 1.16.35 1.37 1.12.2.77 1.92 5.47 3.37 6.1.3.13 1.35 1.15 1.98.98.63-.16.84-1.5.58-2.2M308.56 72c-.04-.56-2.5.8-5.01 1.54-.9.27-3.48.67-4.68 1.37-.73.42-.7.92-.41 1.41.3.5 3.64-.2 5.98-1.26 1.98-.89 4.19-2.15 4.12-3.05" fill="#FFF"/>
    <path d="M327.03 125.94c-2-6.95-2.9-13.26-5.66-20.02-2.14-5.22-3.66-10.68-5.9-15.88-1.9-4.39-4.17-8.6-5.32-13.32-.16-.63-1.56-1.5-2.64-1.2-.54.14-1.7.82-1.87 1.65-.14.62.59 1.43.77 1.59 2.1 1.88 2.97 4.39 3.57 7.03.37 1.58.96 3.08 1.84 4.45 3.03 4.71 10.13 24.75 11.38 28.73 1 3.19.64 5.23.48 5.96-.28 1.26-2.1 1.3-2.81 2.2-.78.99-.73 2.04.26 2.46 1.18.52 2.48 1.47 3.93.54 1.78-1.15 2.48-2.41 1.97-4.2" fill="#FFF"/>
    <path d="M318.33 122.1a6.46 6.46 0 0 0-3.17-2.4c-2.02-.68-6.47.27-7 .26-1.15-.03-2.23.34-3.42.19a11.1 11.1 0 0 1-3.23-.97c-6.23-2.9-11.82-6.89-17.79-10.24-5.41-3.04-10.43-6.79-15.85-9.84-6.18-3.49-11.8-7.74-17.58-11.8-1.03-.72-1.9-1.68-2.91-2.43-1.28-.94-3.16-2.13-4.26-3.69-1.46-2.07-2.05-4.48-2.82-4.62-1.97-.2-2.66 5.39-3.18 6.67-.18.46-.45 2.31.88 3.38 1.41 1.13 2.5-.48 4.95 2.02 2.01 2.05 4.37 3.64 6.64 5.34 3.55 2.66 7.43 4.84 11.17 7.23 4.89 3.11 9.64 6.45 14.71 9.27 4.46 2.48 22.82 11.35 24.16 12.08 0 0 4.58 3.23 5.55 4.08a12.93 12.93 0 0 1 4.15 6.06c.44 1.22 2.72 2.24 3.82 1.85.37-.13 2.73-.22 3.46-2.64.19-.62-.21-.94-.4-1.4-.2-.5-1.38-2.63-1.21-3.12.25-.72.69-1.18 2.09-1.28 1.4-.1 1.92-2.86 1.24-4M78.7 347.9c-.23 1.6.07 1.85 1.64 1.21 1.58-.63 3.08-.77 4.48.39.22.18.46.34.76.18.35-.19.35-.53.3-.85-.07-.37-.1-.83-.33-1.07-2-2.06-2.32-4.72-5.06-6.23a3.6 3.6 0 0 1-.84-2.45 5 5 0 0 1 1.46-2.67c.7-.53 4.8-5.91-.67-5.91-1.59.65-3.75 1-4.65 3.28-.48 1.22-1.03 2.4-1.38 3.67-.26.95-.08 1.57.62 2.36 2.18 2.47 4.18 4.46 3.67 8.09M91.9 391.25c.03-1.2.04-2.48-.3-3.6-.66-2.2-1.63-4.88-.82-6.63.82-1.74-1.37-7.88-.42-11.56.34-1.3 1.06-2.57.85-3.94-.24-1.48 0-2.88.26-4.3.34-1.78-.26-3.74 1.13-5.28.2-.27.62-.69.12-1.57-.5-.88-2.44-1.48-2.62-1.57-1.25-.66-2.12-.2-2.84.86-.28.4-.46 1.07-1.11.87-.73-.23-.43-.94-.46-1.47-.07-.92-.29-1.8-1.13-2.3-2.53-1.45-6.54.21-7.5 2.98-.58 1.65-.76 2.62-2.97 1.36-.91-.52-1.52-.15-1.86.77-.28.77-.38 1.6.04 2.32 1.7 2.95 1.34 6.02.67 9.13a4.5 4.5 0 0 1-1.75 2.94c-.49.35-.82.84-.74 1.43.18 1.34.09 2.62-.1 3.98-.2 1.5-.51 2.82-1.26 4.07a12.39 12.39 0 0 0-1.63 3.86c-.1.46-.05 1 .57.71 1.35-.6 2.76-1.16 2.88-3.04.1-1.44.29-2.94 1.25-4.11 1.25-1.52 1.57-3.42 2.25-5.17 1.29-3.32 2.01-6.81 2.88-10.26.1-.36.14-.99.72-.77.45.16.68.75.4 1.19-.52.82-.38 1.7-.48 2.58-.42 3.67-.92 7.32-2.78 10.64-.77 1.38-1 3-1.26 4.54-.23 1.43-.35 2.85-1.03 4.18a32.5 32.5 0 0 0-2.01 4.93c-.1.32-.14.67.14.92.24.22.59.2.75-.03.55-.75 1.4-1.2 1.81-2.11.72-1.6 1.57-3.11 1.43-5-.07-.9.42-1.79.89-2.63.57-1 1.47-1.97 1.47-3.14 0-2.21.84-4.21 1.33-6.3.58-2.45 1.1-4.94 2.13-7.25l.26-.64s.6-.97.85.28c0 .14.02.3.05.47.4 2.14-.04 4.18-.42 6.24-.52 2.85-1.45 7.58-1.89 8.47-.44.9.04 1.52-.24 2.08-.3.6-.84 4.1-1.05 5.13-.16.79-.86 1.4-1.22 2.06-.78 1.4-.9 3-1.17 4.62-.08.46-.04.86.48 1 .5.15.88 0 1.18-.48a14.59 14.59 0 0 0 2.21-7.4c.04-1.4.7-2.62 1.15-3.88.06-.15.97-.91 1.18-2.12.17-.96-.2-2.43-.17-2.65a65.55 65.55 0 0 1 2.35-10.6c.24-.81.8-2.27 1.3-2.09.51.2.3 1.35.22 2.06-.47 4.07-.78 8.33-2.34 12.17-.1.23-.7 3.66-.75 3.84a11.96 11.96 0 0 0-.55 3.47 7.25 7.25 0 0 1-.4 3.04c-.5 1.16-.07 2.34.43 3.45.22.47.14.9.14 1.42 0 1.26 1.25 1.82 2.26 2.18.87.31 1.4-.4 1-1.26-.35-.79-.63-1.55-.88-2.32-.24-.73-.12-1.58-.32-2.34-.1-.37-.3-.96-.4-1.34a5.06 5.06 0 0 1-.2-1.94c.05-.76-.04-1.53.18-2.29.25-.84.74-1.49.95-2.35.21-.87.48-2.01.5-2.89.06-3.67.69-7.04 1.76-10.48.15-.5.2-1.4 1.09-1.1.7.24.6.96.47 1.58-.46 2.3-1.15 4.53-1.76 6.78-.36 1.34-.1 2.78-.14 4.13-.05 1.43-.02 2.97.65 4.39.56 1.15.36 2.19.18 3.5-.13.93-.12 2.07.54 2.78.8.85 1.22 1.63 1.6 2.72.37 1 1.6.9 2.46.5.96-.44.84-.97.29-1.66-.18-.23-.73-.45-.72-.76" fill="#FFF"/>
    <path d="M95.74 342.45c-1.01-.14-4.16.47-5.43.17-1.27-.3-3.64-1.34-5.01-.72-1.38.61.01 2.83 1.1 3.14 3.28.96 2.61 2.11 2.7 2.7.08.58-.3 2.08 0 2.9.12.36.88.37 1.72.71 1.1.45 2.33 1.12 2.5.52.16-.54.18-1.95.84-3.45.62-1.42 1.87-2.9 2.47-4.25.51-1.17.42-1.55-.89-1.72M246.93 35.83c-.96 1.5-3.5 2.2-3.6 3.44-.27 3.7-2.67.5-3.61 1.45l-.17.13c-1.5 1.55-2.23.15-2.8-.88-1.06-1.93-1.99-3.94-2.35-6.15-.2-1.28-.91-1.75-2.15-1.67-.65.04-3.93 3.1-4.2 3.98-.98 3.15-1.85 3.5-4.67 1.89-.51-.3-1.44-.4-1.06.23.75 1.24 0 2.73 1.07 3.87 2.42 2.58 4.1 5.67 5.91 8.68 1.56 2.6 3.63 4.76 7.55 4.68.04-.02.56-.17 1.1-.3 1.73-.46 2.86-1.88 4.32-2.77 2.96-1.82 6.44-1.98 9.5-3.38 2.74-1.25 3.01-2.93.58-4.69a6.11 6.11 0 0 1-2.58-4.27c-.2-1.37-.5-2.72-1.12-3.98-.44-.9-1.16-1.14-1.72-.26" fill="#FFF"/>
    <g transform="translate(173.4 .28)">
      <mask id="b" fill="#fff">
        <use xlink:href="#a"/>
      </mask>
      <path d="M72.86 27.34a58.65 58.65 0 0 0-3.57-3.21c-.37-.32-1.63-2.34-2.74-4.09-.89-1.4-2.14-4.21-3.21-5.72-1.43-2-2.76-2.61-4.67-3.4C58.3 10.79 50.2.97 44.7.6 36.85.06 29.16.06 21.69 2.94c-1.44.56-2.74 1.11-3.59 2.54-.44.75-1.33 1.15-2.13 1.59a30.05 30.05 0 0 0-10.02 8.8 32.48 32.48 0 0 0-3.84 7.02v-.01c-.04.08-1.2 3.75-1.46 5.54-.54 2.34.3 7.1.85 10.21.54 3.12 2.8 7.8 5.13 10.67 2.34 2.89 10.67 7.01 15.8 9.04 11.37 3.27 13.86-4.05 14.97-4.9 1.1-.86-3.4-.63-3.99-1.6-.26-.45-.68-1.45-.31-2 .44-.64 1.73-.78 2.23-.65.8.21 1.7.26 2.3.87 1.22 1.25 3.29 2.23 4.13 1.06 1.21-1.68 2.83-.98 4.06-1.76.1-.06.14-.24.17-.37.52-2.1.8-4.22.4-6.36-.13-.7-.51-1.5-1.22-.36-.35.57-.7.91-1.3.5-.7-.5-.97-1.27-.47-1.99.58-.84 1.37-1.54 2.06-2.3.45-.51 1.32-.95 1.13-1.64-.7-2.54 1.22-3.95 2.5-5.33 2.28-2.45 2.48-5.19 1.42-7.87-1.3-3.31.32-5.73 1.66-8.32.27-.51.75-1.1 1.48-.9.6.18.8.83.8 1.36 0 3.05 1.5 5.34 3.57 7.4 1.05 1.05.94 2.11-.03 3.28a54.25 54.25 0 0 1-6.14 6.14c-.88.78-3.04 2.33-2.33 3.11.72.79 2.5-1.09 3.37-2.04 2.93-3.2 4.49-3.55 8.62-3.1 1.18.13 3.22-.27 3.97 1.91.1.32.2 1.23-.23 1.87-.24.34-2.06.05-2.34.27-.33.27.9 1.05 1.05 1.17.25.2 1.85 1.34 2.34 1.29.49-.06.9-.24.43-1.37-.32-.81 1.74-.06 2.3.55.66.72 2.06-.6 2.52-1.13.63-.73 1.65-1.74 2.3-2.45.69-.76.45-1.43.47-2.07.03-1.06-.21-2.03-1.46-3.27" fill="#FFF" mask="url(#b)"/>
    </g>
    <path d="M211.7 63.48s.14-.65.98-1.39c.6-.52 3.32-2.53 4.19-2.97.87-.44 2.2-1.35 2.87-.96.68.4 1.38.96 1.25 1.52-.13.56-4.05 1.55-4.64 2.1-.6.57-1.87 1.9-2.48 2.52-.69.7-.92 1.07-1.59.87a2.73 2.73 0 0 1-.59-1.7M231.24 89.54s2.05-2.76 3.41-1.53c1.37 1.23 5.2 2.07 5.73 2.7.52.65.01.81-.35.84-.36.04-5.11-1.15-6.83-1.03-1.83.14-2.57.61-1.96-.98M217.36 56.9c1.1-.42 2.44-.74 1.12-1.66-.68-.47-2.28-.16-3 .56 0 0-4.17 3.37-4.68 4.13-.35.5.44.7.6.74.39.13 5.52-3.59 5.96-3.76M56.93 160.17a13.2 13.2 0 1 1 1.11-26.35 11.09 11.09 0 1 0 10.8 18.85 13.2 13.2 0 0 1-11.9 7.5m21.87-7.32c-1.32-4.44-12.01-18.13-14.26-21.87-.83-1.39-2.02-8.35-4.7-11.9-2.25-3-1.72-3.42-1.72-3.62 0-.44 5.4.06 5.51.05 1.27-.15 2.55-.77 3.6-.67 1.04.1 2.32.54 3.3 1.59.58.61 1.74 3.22 1.94 1.87a5.4 5.4 0 0 0-.5-3.11c-1.23-2.6-3.88-3.97-6.8-5.03-1.26-.45-4.71-.59-6.15.57-.7.57-1.08 1.4-1.61 2.1-.04.05-.75.85-1.14.72-.03 0 .12-.71-.16-1.2a2 2 0 0 0-1.2-.8 4.94 4.94 0 0 0-3.28.96c-1.53-1.74-4.68-2.86-6.24-3.53-3.48-1.48-11.08-.27-11.08-.27-.98 4 6.33 6.32 9.27 6.45 1.42.06 2.6-.45 3.9-.6 1.14-.13 2.38 0 3.54.2.07.22.17.44.3.68.24.4.56.67.92.82h-.01c-.4.2-3.37 1.9-5.11 5.01-1.98 3.55-3.96 8.3-4.63 9.71-1.26 2.64-8.29 13.86-9.79 15.47A9.62 9.62 0 0 0 30.9 149c-1.64 3.49.02 7.83 1.08 11.44.7 2.36 3.46 3.59 5.55 4.78 2.13 1.22 3.74 2.73 6.03 3.38 3.6 1.02 7.46.48 11.14.19 7.54-.6 16.2 1.48 20.63-6.33 1.56-2.75 4.44-6.39 3.48-9.61M340.33 51.98c-2.12.07-4.3 2.64-4.3 2.64s-17.96 5.69-28.39 8.68c.02 1.55.29 2.6 1.41 3.75.26.26.5.53.73.8 12.1-3.1 27.67-6.49 29.88-8.17 2.76-2.1 2.79-7.78.67-7.7" fill="#FFF"/>
    <g transform="translate(0 115.73)">
      <mask id="d" fill="#fff">
        <use xlink:href="#c"/>
      </mask>
      <path d="M45.42.66C25.1 6.6 0 14.05 0 14.05s.1 3.7 1.93 2.78c1.83-.93 15.54-4.88 15.54-4.88s4.8.14 5.22-.8c1.05-.54 9.94-3.4 21.44-6.95A27.57 27.57 0 0 1 49 .66c-.73-.36-2.5-.1-3.57 0" fill="#FFF" mask="url(#d)"/>
    </g>
    <path d="M189.25 76.8c-5.57.84-34.06 2.66-34.06 2.66l-3.68-1.16s-2.47 1.54-1.51 2.13c.95.6-10.08 3.16-10.08 3.16s-2-.45-1.62 1.27c-3.3.56-11.73 3.17-11.73 3.17s-13.94 11.77-18.9 11.83c-4.95.06-30.38 6.65-37.48 9.45l-1.35.35c.98.71 2.18 1.22 3.27 1.82 15.87-4.68 29.65-8.52 30.66-8.2 2.4.78 5.52.23 8.91-1.06 3.39-1.3 18.96-11.84 18.96-11.84l23.72-6.57s36.97-5.55 55.34-4.18c1.07-1.1 2.14-2.25 2.7-3.8-5.41-.23-12.77-.01-23.15.97M283.46 70.64c-.6.05-3.2.35-3.2.35s-27.3 2.52-42.58 3.17c1.9 1.47 5.15 2.28 6.71 3.96 10.4-.45 31.36-3.36 41.55-4.14-1.63-1.42-1.31-1.74-2.48-3.34" fill="#FFF"/>
  </g>
</svg>
