<svg width="272" height="266" xmlns="http://www.w3.org/2000/svg">
  <g fill="#FFF" fill-rule="evenodd">
    <path d="M135.64 135.06h.01v-.02h-.01v.02M114.39 174.5c-.06-.38-.3-.77-.23-1.18.07-.4-.1-.47-.44-.44-.1.02-.2.1-.26.18-.22.3-.48.55-.64.9-.2.43-.39.86-.65 1.26-.45.7-1.1 1.2-1.64 1.81-.66.76-1.32 1.52-2.02 2.23-.74.77-1.57 1.45-2.28 2.24a226.5 226.5 0 0 1-4.36 4.73c-2.09 2.2-4.1 4.47-6.16 6.7-.79.85-1.55 1.72-2.52 2.4-.27.19-.53.42-.77.65-.25.24-.33.56-.18.85.13.25.44.26.7.2.2-.05.38-.02.56.04.5.15.68.07.84-.42.14-.42.25-.86.53-1.22.5-.67 1.02-1.34 1.55-2 .98-1.23 2.15-2.3 3.2-3.46 1.34-1.5 2.75-2.92 4.14-4.36 1.73-1.79 3.54-3.5 5.27-5.28.56-.57 1.14-1.14 1.61-1.77.63-.82 1.68-1.96 2-2.35.3-.4.53-.82 1.12-.99.6-.16.72-.11.63-.72"/>
    <path d="M139.87 135.95a4.16 4.16 0 0 0-1.55-1.6c-.15-.1-.12-.1-.42-.2-.31-.1-.57.5-.48.76.1.27.02.42-.12.6-.15.19-.34.5-.59.31-.3-.23-.54-.4-1.03-.48-.49-.09-1.5.2-1.7.24-.33.06-.64.17-.93.35-.1.07-.42.51-.48.68-.1.27-.38 1.02-.4 1.16-.04.27-.1.6.16.8.48.35.44.83.37 1.31-.06.43-.15.86-.23 1.28-.32 1.5-.61 2.98-1.11 4.42a273.53 273.53 0 0 1-4.98 12.05c-.94 1.64-1.91 3.25-2.91 4.85-1.06 1.7-2 3.48-3.36 4.97-.93 1.02-1.9 1.83-3.36 2.07-1.6.26-1.56 2.1-.7 2.64.84.54 2.4 1.6 3.2 1.51.6-.06 1.19-.23 1.5-.77.27-.44 1-1.18 1.18-1.76.18-.58.98-2.15 1.57-3.18 2.1-3.67 4.04-7.42 5.94-11.2a56 56 0 0 0 3.63-8.84c.61-2.01 1.32-3.99 2.01-5.97.12-.33.6-1.37.8-1.62.18-.24.28-.5.5-.52.23-.02.95-.29 1.4-.6.22-.15.45-.55.1-.81-.2-.15-.12-.36.05-.46.34-.22.66-.6 1.15-.26.13.1.28.05.42-.06.46-.36.66-1.16.37-1.67M118.1 174.65a6.32 6.32 0 0 0-.9-.92c-.19-.15-.97-.88-1.17-1.07-.5-.28-1.06-.3-1.4-.06-.34.26.04.82.44 1.4.4.56.44.61.13 1.08-.31.47-3.55 4.45-4.17 5.09-1.44 1.47-3 2.84-4.44 4.32-.88.9-8.89 9.06-9.25 9.5-.44.52-2.83 2.6-1.88 3 .03.01.97.42 1.46.47.53.05.91-.2 1.07-.65.33-.96.88-1.78 1.45-2.6.57-.85 3.94-4.53 5.08-5.49 1.25-1.05 2.54-2.06 3.72-3.2.99-.96 7.38-7.31 7.92-7.75.8-.65 1.4-1.43 2-2.23.23-.31.17-.61-.05-.89M159.7 112c-1.41-.62-2.83-1.21-4.24-1.83-.25-.12-.56-.18-.72-.48.27-.1.45.05.65.11.63.2 1.22.55 1.91.55.14 0 .33.08.4-.12.05-.2-.07-.35-.27-.42-.42-.15-.85-.3-1.28-.43-2-.57-4.04-1.06-6.01-1.72-.53-.17-1.06-.44-1.58-.67l-1.18-.56c-.48-.23-1.02-.97-1.33-.89-.3.08-.08.8-.02.93.26.6 2.5 1.92 2.65 2 .88.39 1.74.82 2.6 1.26 1.27.65 2.62 1.08 4 1.45 1.42.38 2.7 1.15 4.08 1.65.33.12.63.2.79-.22.17-.43-.18-.5-.45-.62M155.64 94.5c1.14.21 2.3.39 3.44.58.86.14 1.72.25 2.51.63a6 6 0 0 1 1.34.96c.1.1.24.2.4.13.14-.05.12-.19.12-.3-.06-.7-.53-1.16-1.04-1.45a9.59 9.59 0 0 0-4.05-1.17c-.85-.07-1.7-.16-2.54-.25-.34-.03-.76-.07-.85.3-.1.45.37.5.67.57M153.78 95.85c0 .2.15.28.34.29.4.02.71.25 1.01.5.12.1.23.17.39.2.9.22 1.8.46 2.72.67 1.9.45 3.92.45 5.64 1.57.3.2.47 0 .46-.33 0-.5-.22-.77-.87-1.1-1.08-.55-2.25-.82-3.42-1.09-1.56-.36-3.2-.3-4.73-.8-.36-.12-.76-.14-1.14-.18-.2-.03-.39.03-.4.27M153.01 97.76c.14.35.34.7.81.8 1.85.43 3.69.94 5.55 1.33 1.7.36 3.3.9 4.76 1.84.17.1.32.1.34-.1.04-.34.1-.72-.28-.94-1.13-.66-2.22-1.42-3.54-1.69-.5-.1-1-.25-1.5-.38a52.8 52.8 0 0 0-5.74-1.14c-.16.08-.57-.12-.4.28M152.23 99.79c-.07.11 0 .22.09.25.48.2.73.7 1.18.94.46.26.95.48 1.47.61 1.7.44 3.38.91 5.09 1.32a9.9 9.9 0 0 1 3.67 1.87c.59.45.69.44.98-.25.22-.53.17-.65-.35-.89l-.86-.4c-.9-.46-1.75-1.05-2.74-1.33-1.81-.51-3.62-1.07-5.43-1.57-.93-.26-1.86-.53-2.78-.64-.15 0-.26-.01-.32.09M155.34 92.04a4.2 4.2 0 0 0 2.3.7c1.56.15 3.21.01 4.41 1.48.1-.63-.48-1.66-.96-1.85a15.6 15.6 0 0 0-4.96-1.04c-.22-.02-.44-.04-.65.03-.17.06-.39.08-.42.3-.02.19.15.28.28.38M151.14 201.91c.42.14.36-1.14 1.22-3.8.41-1.27 1.18-2.89 1.66-4.56.65-2.24 1.26-4.67 2.05-7.33.54-1.82 1.03-3.67 1.46-5.38.94-3.79 1.95-5.34 1.47-5.51-.48-.17-2.14 5.35-4.1 12.07-1.87 6.38-4.19 14.37-3.76 14.51"/>
    <path d="M153.48 205.38c.28.18.66.07.93-.12.1-.07.17-.21.28-.53.18-.54.38-.67.32-1.97a9.26 9.26 0 0 1 .1-1.9 57.17 57.17 0 0 1 3.12-10.9c.63-1.65 1.18-3.32 1.68-5 .49-1.64 1-3.28 1.52-4.92.54-1.73 2.18-6.2 2.27-6.7.14-.7.01-1.24-.97-.9-.52.2-2.4-.43-3.01-.36-.8.09-1.1 1.6-.6 1.93.5.33 1.1.86 1.12 1.32.02.45-2.48 10.73-3.33 13.55-.9 2.98-3.96 11-4.05 11.69-.03.26-.09 1.01-.3 1.51-.1.27-.25.28-.38.37-.34.26-.1.2-.93.27-.25.02-.54.44-.62.7-.18.61.13.82 1 1.17 0 0 .8.08 1.85.79M158.7 211.32c.12-.13.5-.1.6-.1.1 0 .7.17 1.02.27.68.22 1.24.65 1.86.98.32.17.54.4.68.66.06.12.26.83.64.95.31.1 3.3-.08 3.79.14.46.22.99.15 1.43.4.2.11.4 0 .54-.16a1 1 0 0 1 .82-.4c.39-.01.6-.3.24-.58-.82-.66-1.83-.95-2.78-1.38-.01-.01-1.88-.34-2.85-.3a2.9 2.9 0 0 1-1.9-.75c-1.06-.9-2.48-1.34-3.25-2.6a.8.8 0 0 0-.27-.23c-.86-.53-1.84-.85-2.77-1.17-.57-.19-1.1-.35-1.57-.7-.44-.34-1.79.14-2.14.02-.56-.2-1.14-.28-1.47-.92a2.06 2.06 0 0 0-1.2-.64c-.26-.03-.6-.04-1.05.25-.44.29-.36 1.05-.23 1.36.08.19.18.37.04.56-.16.22-.42.22-.66.18-.44-.07-.75-.34-1.05-.64-.44-.44-1.03-.48-1.34-.14-.6.63-.87 2.3-.4 3.04.14.21.68 1.68 2.44 2.1.26.05 3.24.1 4.9-2.75.66 0 .87 2 1.46 2.13 1.43.34 4.06.87 4.47.42M150.18 132.66c-.21-.99-.83-1.85-.98-2.83-.47-3.05-2.02-2.45-2.7-2.75-.58-.25-.9-1.53-1.2-2.27-.25-.62-.44-1.21-.52-1.54-.09-.32-.2-1.17-.53-1.38-.32-.22-1.18-.23-1.32.03-.31.55.2 1.05.46 1.55.3.57.16 1.36.2 2.06.02.43-.38 3.04.04 3.3.43.28.9.12 1.33.45.44.33.47.8.49 1.56 0 .61-.1 1.09-.47 1.7-.39.6-1.53.18-1.91.54-.05.04-.25.63-.23 1.17.03.64-.1 1.24-.65 1.4-.54.16-.5-.39-1.33-.23-.27.13-.38.33-.35.65.06.5.1 1-.1 1.48-.22.5-.17 1.04.08 1.45.05.08.53.34.85.44.26.07 1.16.1 1.36.06.17-.03.8-.29.98-.5.2-.23.2-.77.26-1.16.1-.53.39-.8.92-.82.6-.01.99-.34 1.28-.82l.24-.44c.41-.75 1.18-.9 1.91-1.03.37-.07.9-.25 1.3-.4.2-.08.68-.37.71-1.07-.02-.2-.07-.4-.12-.6"/>
    <path d="M144.45 129.94c-.4-.23-1.3-.01-1.68-.4-.38-.4-.06-.9-.06-2.51 0-1.57.45-2.7-.5-4.07-.38-.56-1.58-.16-2.07.14-.64.41-1.29.81-1.85 1.34-.7.63-1.44 1.21-1.73 2.15-.13.42-2.55 2.73-2.62 2.89-.02.02-.8 1.02-1.28 1.92-.34.67-.43 1.3-.35 1.45.19.35.7 1 1.19 1.29.55.32 1.23.36 2.15.16.79-.17 1.53-.8 1.72-.85.65-.18 1.97.67 2.35 1.07.35.38.77.64 1.32.35.14-.08.3-.03.44.03.14.05.37.12.6-.03.22-.14.19-.53.23-.83.04-.3-.06-1.1-.04-1.24.04-.26.2-.4.46-.46.2-.04 1.02-.02 1.37-.05.34-.02.58-.53.62-1 .06-.66.14-1.12-.27-1.35M164.46 168.12a2.4 2.4 0 0 0-.73-.93 6.62 6.62 0 0 1-1.7-2.08c-.3-.6-1.35-3.17-2.94-5.84-1.36-2.3-6.8-10-8.4-11.84-1.34-1.52-6.04-6.19-6.38-6.65-.33-.45-.13-.9-.3-1-.34-.2-.66.74-1.45.76-.84.01-1.31-.6-1.47-.14-.04.14-.4 1.02 0 1.67.4.66 1.57 1.09 1.8 1.03.28-.07.24-.43.37-.55.2-.19.52-.1.7.11.33.42 6.1 6.5 8.91 10.31 2.38 3.24 4.37 6.27 4.6 6.6.58.78 2.77 4.53 3.5 8.66.16.84-.07 1.49-.15 1.82-.04.2-.52.31-.58.64-.04.23.3.68.45.87.34.43 1.28.53 1.7.52 1.02-.03 1.71-.84 2.21-1.71.1-.17.19-.27.28-.54.15-.47-.36-1.57-.42-1.7M147 122.3c-.22-.21 0 .03 0 0"/>
    <path d="M147.72 122.65c-.34-.09-.55-.17-.74-.36.01.02-.18-.19 0 0-.27-.36-.84-2.5-1.75-3.24l-.2-.09a2.15 2.15 0 0 0-.74-.12c-.58.02-1.04.42-1.12.96-.02.12-.03.7.36.93.3.17.57.12 1.16.15.6.03.68 1.5.74 1.73.05.22.38 1.4.73 1.76.36.36.67.68 1 .85.34.17.78.34 1.55.54.15.04.24-.08.28-.21.2-.6.46-1.15.82-1.66.22-.38-.62-.61-2.1-1.24M149.31 115.33c.14-.27-.7-.4-.9-.53-.31-.21-.8-.91-.91-1.04-.33-.36-.75-.83-1.58-.61-.37.1-.55.28-.6.63-.04.26-.08.53-.08.8-.01.31.1.47.48.44.45-.03.66.1 1.3.29.64.19 2.25.17 2.3.02M151.02 119.76c-.5-.17-1.6-.2-2.01-.28-.4-.08-1-.57-1.69-.5-.62.06-.95.65-.74.9.21.25 1.33 1.55 1.51 1.62.65.25 1.31.49 1.98.71.23.08.5.1.54-.24.07-.6.35-1.1.63-1.62.16-.29.07-.49-.22-.59M151.54 116.34c-.3-.04-.96-.18-1.74-.15-.55.01-1.16.6-1.72.6-1.07 0-2.62-.5-2.92-.53-.33-.02-.6.03-.7.4-.1.49-.49.97-.04 1.47.1.12.27.11.42.13.1.01 1.12.1 2.15.02.96-.07 1.93-.3 2.17-.3.18.02.36.07.54.1l1.53.3c.32.05.5-.06.48-.44-.03-.33-.05-.67.14-.97.25-.39.04-.59-.3-.63M158.02 114.1c-.68-.3-2.75-1.04-2.68-1.38.06-.34.06-.55-.2-.63l-3.13-.9c-.68-.2-1.47-.35-1.92-.8-.49-.52-1.08-.45-1.6-.72-.73-.38-1.39-.84-2.01-1.38l-.16-.13c-.1-.08-.23-.25-.5.04-.22.25.15.57.24.66.12.14.14.28-.03.43-.9.76-.25 1.39-.23 1.42l.03.05.05.05-.05-.05c.13.21.52.79.8 1.03 1.27 1.22 4.67 2.7 4.84 2.79.54.29 1.03.68 1.65.82.19.05.38.05.5-.14.13-.22-.08-.32-.2-.44-.08-.07-.17-.12-.25-.18-1.74-1.32-3.68-2.35-5.44-3.64-.1-.07-.3-.09-.22-.27.08-.18.26-.11.4-.05l1.25.62a92.15 92.15 0 0 0 8.46 3.64c.33.12.62.09.76-.25.15-.33-.1-.48-.36-.6M163.6 106.42c-.07-.38-.35-.56-.68-.66-1.04-.34-2.1-.68-3.15-1-1.95-.59-3.96-.97-5.9-1.6-.76-.24-1.52-.5-2.33-.57-.46-.03-.7.37-.44.83.07.13.22.22.29.25 1.04.43 2.12.7 3.2 1 1.05.27 2.05.72 3.14.87 1.03.14 2 .5 3.02.7a7.2 7.2 0 0 1 2.1.79c.22.12.47.18.67 0 .18-.15.12-.39.08-.6M161.85 109.5c-.03-.36-.3-.47-.56-.55-1.4-.44-2.68-1.14-4.04-1.64-.6-.23-1.2-.42-1.77-.69a34.71 34.71 0 0 0-4.46-1.64l-.17-.06c-.27-.08-1.12-.4-1.27-.46-1.22-.48-2.44-.96-3.6-1.57-.17-.08-.47.16-.42.58.02.24.19.72.24.75 1.24.7 2.6 1.14 3.9 1.65 1.04.4 2.1.75 3.14 1.18 2.71 1.13 5.5 2.06 8.26 3.06.52.2.8-.06.75-.61M149.33 102.49c-.82-.34-1.49-.6-3.29-1.78-.26-.12-.62-.2-.74.22-.11.4.1 1.03.43 1.14.34.12 1.93.65 2.9.96.26.09.54.15.83.03.1-.2.22-.4-.13-.57M151.21 78.17c-.24-.18-1.02.1-1.54.27-.5.16-.9.4-.97.45-.1.09-.18.2-.3.26-.16.1-.45.6-.66.7-.2.1-.63.58-.61.77.01.2.17.47.5.36.09-.02.62-.52.63-.63 0 0 .22-.28.5-.52a8.29 8.29 0 0 1 1.18-.63c.1-.03 1.35-.39 1.4-.55.05-.16.11-.3-.13-.48M151.67 79.86c-.32-.11-1.9.2-2.12.34-.23.14-.4.6-.75.7-.61.2-.52.46-.45.64.02.05.3.27.65.17.5-.16 1.15-.68 1.53-.8.4-.12.99-.03 1.3-.09.45-.08.55-.3.55-.4.01-.25-.4-.44-.71-.56M150.87 88.2l.09-.17c.03-.17.08-.35.13-.53a3.33 3.33 0 0 0-.98-.49 9.62 9.62 0 0 0-2.01-.18 5.9 5.9 0 0 0-1.7.27c-.24.13-.32.52-.26.68.04.12.15.29.52.27.63-.04.76-.51 1.92-.36.47.06 1.3.45 1.83.68.2.02.37-.01.46-.17M145.57 98.59c-.26-.13-.52-.21-.8 0-.07.05-.5.29-.59.43-.08.13-.1.56-.02.71.07.15.42.15.75.1.14 0 .47.02.66-.13.26-.21.35-.63.32-.71a.7.7 0 0 0-.32-.4M145.24 94.1c0-.21-.08-.48-.22-.53-.14-.05-.31.53-.38.6-.13.13-.38.18-.32.44.04.18.06.39.26.45.17.06.31.02.42-.1.1-.1.24-.64.24-.86M145.13 95.62c-.16 0-.38.29-.67.78-.2.33-.31.69-.43.99-.1.24-.16.65.05.68.22.03.58-.45.64-.52.25-.25.5-.36.63-.55.13-.2.17-.61.13-.92-.05-.42-.18-.45-.35-.46"/>
    <path d="M156.83 85.86c-.15-.32-.82-.48-1.28-.71-.74-.38-1.63 1.08-2.1 1.46-.6.46-1.22 1.02-1.52 1.34-.31.32.08 1.15-.58 1.31-1.02.26-2.1-.88-3.05-.93-.9-.06-2.36.42-2.75 1.93-.22.88.34 3.1.36 3.4.03.3.45 4.91.43 4.8 0-.07.19.9.54 1.54a2.9 2.9 0 0 0 2.02 1.23c.45.06 1.64 0 2.1-1 .35-1.1.65-2.48.93-3.22.62-1.64 1.01-3.37 2.26-4.7.19-.2.33-.84.31-1.06-.02-.2-.84-.69-.79-1.37.06-.67-.02-.97.43-1.72.45-.74 1.76-.15 2.12-.4.4-.28.72-1.58.57-1.9M152.48 82.54c.31-.18.39-.4.32-.64a3.89 3.89 0 0 1-.05-.05c-.25-.24-1.42-.07-1.92-.04-.5.03-2.09.17-2.1.77 0 .34.72.05 1.56.03.44 0 .4.11.85.16.45.04.96-.01 1.34-.23M154.9 83.55c-.43-.2-1.02-.46-1.46-.58-.44-.11-1.48.31-1.54.74-.07.43 1.28.54 1.49.53.2-.02.61-.1.97 0 .36.09 2.02.8 2.14.4.12-.4-1.05-.83-1.6-1.09M152.42 84.91c-.11-.04-.62.02-1.09-.3-.48-.34-.92-1.06-1.32-1.11-.45-.11-.93-.09-1.05-.07-.36.04-.56.11-.75.4-.11.16-.2.36-.34.52-.45.47.39.53.78.47.6-.1 1.32-.2 1.76.04.14.08.25.27.33.45.62.52 1.31.6 2.05.38.46-.59-.14-.7-.37-.78"/>
    <path d="M151.41 86.57c-.1-.04-.82-.27-.97-.43-.19-.2-.59-.7-.8-.77-.22-.07-.81.02-1.46.04-.58.03-.85-.1-.96-.02-.1.08-.62.53-.62.9-.01.37 1.42-.03 1.7-.02.13 0 .49-.05 1.04.06.63.14 1.8.6 1.9.55.01 0 .19 0 .23-.05.05-.07.04-.22-.06-.26M181.47 82.91c-.12-.11-.7-.46-.86-.56-.43-.26-1.2-1.72-1.84-1.94a1.89 1.89 0 0 1-1.12-1.47c0-.45-.77-1.07-1.1-.75-.35.3-.27.74.1 1 .65.48.95 1.16 1.28 1.85.66 1.35 1.85 2.07 3.22 2.51.18.06.45.18.55-.08.07-.2-.08-.42-.23-.56M182.6 81.85c-.79-.68-1.08-1.7-1.75-2.47-.94-1.1-1.25-2.7-2.68-3.4-.2-.1-.63-.02-.89.35-.25.36.08.87.23 1.17.14.3.91.88 1.03.96.4.26.7.6.88 1.04.08.2.2.35.4.46.63.38 1.13.93 1.34 1.6.22.72 1.9 1.76 2.62 1.52a8.95 8.95 0 0 0-1.18-1.23M183.97 85.06c-.52.46-.49 1.28.2 1.9.34.29.64.61.8 1.02.54 1.33 1.2 2.6 1.63 3.96a23.29 23.29 0 0 0 1.95 4.43c.74 1.3 1.6 2.53 2.28 3.87 0 0 .19.86.7 1.22.38.26 1.06.15 1.2-.36.14-.5-1.16-2.76-1.27-2.9a54.51 54.51 0 0 1-3.35-6.55c-.79-2.12-1.6-6.15-1.8-6.51-.2-.37-.52-.56-1.02-.58-.62-.02-.8.04-1.32.5M187.13 80.91c.22-.13.3-.66.1-1.2-.08-.23-.35-.48-.45-.67-.12-.2-.15-.48-.19-.73l-.43-3.01c-.1-.62-.57-1.21-.86-1.22-.28 0-.48.2-.44.68.21 1.27.9 3.21.93 3.8.01.24.05.96.28 1.4.35.7.87 1.07 1.06.95M185.1 79.36c-.14-.35-.13-.73-.23-1.08-.39-1.27-.4-2.64-1.13-3.81v-.01c-.19-.19-.32-.53-.74-.5-.41.01-.11 1.96-.05 2.15.09.28.24.63.36.83.13.2.37.5.53.83.08.18.15.38.21.58.07.23-.02.72.22 1.45.18.52.76 1 1.02 1.54s.85 1.2 1.22 1.07c.37-.13-.06-1.03-.57-1.6-.53-.57-.82-1.38-.85-1.45M184.83 81.77c-.19-.52-.8-1.28-.86-1.33-.57-.42-.77-.8-.73-1.52.03-.59.18-1-.58-1.3-.08-.04-.53-1.63-1.03-2.25-.49-.6-.88-.69-1.21-.57-.33.12-.84.94-.55 1.34.42.59 1.23 1.19 1.57 1.81.2.35.09.9.27 1.25.15.3.5.15.58.48.1.33.83 2.34 1.45 2.61.13.06.58.5.85.43s.36-.65.24-.95M188.1 82.27c-.01-.24-1.07.34-2.15.66-.38.11-1.49.28-2 .58-.31.18-.3.4-.18.6.13.22 1.56-.08 2.57-.53.85-.38 1.8-.93 1.76-1.31"/>
    <path d="M196.02 105.38c-.86-2.98-1.24-5.68-2.43-8.58-.92-2.23-1.57-4.57-2.53-6.8-.8-1.88-1.79-3.7-2.28-5.71-.06-.27-.66-.65-1.13-.52-.23.07-.72.36-.8.71-.06.27.25.61.33.68a5.4 5.4 0 0 1 1.53 3.02c.16.67.41 1.32.79 1.9 1.3 2.02 4.34 10.6 4.88 12.31.43 1.37.27 2.25.2 2.56-.12.54-.9.55-1.2.95-.33.42-.31.87.1 1.05.52.22 1.07.63 1.7.23.76-.5 1.06-1.04.84-1.8"/>
    <path d="M192.29 103.74a2.77 2.77 0 0 0-1.36-1.03c-.87-.3-2.77.12-3 .1-.5 0-.95.15-1.46.09a4.76 4.76 0 0 1-1.39-.42c-2.67-1.24-5.07-2.95-7.62-4.38-2.32-1.3-4.48-2.91-6.8-4.22-2.64-1.5-5.06-3.32-7.53-5.06-.44-.3-.81-.72-1.25-1.04-.55-.4-1.35-.91-1.82-1.58-.63-.89-.88-1.92-1.21-1.98-.85-.09-1.14 2.3-1.36 2.86-.08.2-.2.99.37 1.45.6.48 1.07-.2 2.12.86.87.88 1.88 1.56 2.85 2.3 1.52 1.13 3.18 2.07 4.78 3.09 2.1 1.33 4.14 2.76 6.31 3.97 1.91 1.06 9.78 4.87 10.35 5.18 0 0 1.97 1.38 2.38 1.75.9.7 1.43 1.59 1.78 2.6.19.52 1.17.95 1.64.79.16-.06 1.17-.1 1.48-1.13.08-.27-.09-.4-.17-.6-.09-.21-.59-1.13-.52-1.34.1-.31.3-.5.9-.55.6-.04.82-1.22.53-1.71M89.59 200.5c-.1.7.03.8.7.53.68-.28 1.32-.33 1.92.16.1.08.2.15.33.08.15-.08.15-.23.12-.37-.02-.15-.03-.35-.13-.45-.86-.89-1-2.03-2.17-2.67-.04-.02-.41-.5-.36-1.05.04-.5.5-1.05.62-1.15.3-.23 2.06-2.53-.28-2.53-.68.28-1.61.42-2 1.4-.2.53-.44 1.03-.59 1.58-.1.4-.03.67.27 1.01.93 1.06 1.79 1.9 1.57 3.47M95.25 219.08c.01-.5.01-1.06-.13-1.54-.28-.94-.7-2.1-.35-2.84.35-.74-.6-3.38-.18-4.96.14-.55.45-1.1.36-1.68-.1-.64 0-1.24.11-1.85.15-.76-.1-1.6.49-2.26.09-.11.26-.3.05-.67-.22-.38-1.05-.64-1.12-.68-.54-.28-.91-.08-1.22.37-.12.17-.2.46-.48.38-.31-.1-.18-.4-.2-.63-.02-.4-.12-.78-.48-.98-1.08-.63-2.8.08-3.22 1.27-.24.7-.32 1.12-1.27.58-.39-.22-.65-.06-.8.33-.11.33-.16.69.02 1 .73 1.26.58 2.57.3 3.91-.12.51-.32.95-.76 1.26-.2.15-.35.36-.32.61.08.58.04 1.12-.04 1.7-.08.65-.22 1.21-.54 1.75a5.3 5.3 0 0 0-.7 1.65c-.04.2-.02.43.25.31.58-.26 1.18-.5 1.23-1.3.04-.62.12-1.26.54-1.77.53-.65.67-1.46.96-2.21.55-1.42.86-2.92 1.24-4.4.04-.15.06-.42.3-.33.2.07.3.32.18.51-.23.35-.17.73-.21 1.1-.18 1.58-.4 3.14-1.2 4.57-.32.59-.42 1.28-.53 1.94-.1.62-.15 1.23-.44 1.8-.35.67-.63 1.38-.86 2.1-.05.15-.07.3.05.4.1.1.26.09.33 0 .23-.33.6-.52.77-.91.31-.7.68-1.34.61-2.15-.02-.38.18-.76.39-1.12.24-.44.63-.85.63-1.35 0-.95.36-1.8.57-2.7.25-1.05.47-2.12.91-3.1l.11-.28s.26-.42.37.12c0 .06 0 .13.02.2.17.92-.02 1.8-.18 2.67a30.6 30.6 0 0 1-.81 3.63c-.19.39.01.66-.1.9-.13.26-.37 1.75-.45 2.2-.07.33-.37.6-.53.88-.33.6-.38 1.29-.5 1.98-.03.2-.02.37.2.43s.38 0 .51-.2c.6-.98.92-2.04.95-3.18.02-.6.3-1.12.5-1.67.02-.06.4-.39.5-.9.07-.41-.09-1.05-.07-1.14.2-1.55.55-3.05 1-4.54.1-.35.34-.98.56-.9.22.09.13.58.1.89-.2 1.74-.34 3.57-1.01 5.21-.04.1-.3 1.57-.32 1.65-.15.54-.25.95-.24 1.49 0 .43.01.88-.17 1.3-.22.5-.03 1 .19 1.48.09.2.05.38.06.6 0 .54.53.79.96.94.38.13.6-.18.44-.54a9.4 9.4 0 0 1-.39-1c-.1-.3-.05-.67-.13-1-.05-.16-.13-.4-.17-.57-.09-.33-.1-.51-.09-.84.02-.32-.02-.65.08-.98.1-.36.32-.63.4-1 .1-.37.21-.87.22-1.24.02-1.57.3-3.02.75-4.5.07-.2.09-.6.47-.47.3.1.26.42.2.68-.2.99-.5 1.94-.75 2.91-.16.57-.05 1.19-.06 1.77-.02.61-.01 1.27.28 1.88.24.5.15.94.07 1.5-.05.4-.05.89.23 1.19.35.37.53.7.7 1.17.15.43.67.38 1.05.21.4-.19.35-.42.12-.71-.08-.1-.31-.2-.31-.33"/>
    <path d="M96.9 198.17c-.44-.06-1.79.2-2.33.07-.55-.13-1.57-.57-2.15-.3-.6.26 0 1.2.47 1.34 1.4.41 1.12.9 1.16 1.16.03.25-.13.89 0 1.24.05.15.38.16.74.3.46.2 1 .48 1.07.23.07-.23.07-.84.36-1.48.26-.6.8-1.24 1.05-1.82.22-.5.19-.67-.38-.74M161.69 66.76c-.41.65-1.5.95-1.54 1.48-.12 1.58-1.15.21-1.55.62l-.07.05c-.65.67-.96.07-1.2-.37a8.25 8.25 0 0 1-1-2.64c-.1-.54-.4-.75-.93-.71a5.62 5.62 0 0 0-1.8 1.7c-.42 1.35-.8 1.5-2 .81-.22-.12-.62-.17-.46.1.33.53 0 1.17.46 1.66 1.04 1.1 1.76 2.43 2.53 3.72.67 1.11 1.56 2.04 3.24 2l.47-.13c.74-.19 1.23-.8 1.85-1.18 1.27-.78 2.76-.85 4.08-1.45 1.17-.54 1.28-1.25.24-2-.64-.47-.99-1.07-1.1-1.84a5.81 5.81 0 0 0-.48-1.7c-.2-.4-.5-.5-.74-.12"/>
    <path d="M161.4 63.25c-.5-.5-.99-.93-1.53-1.38-.16-.14-.7-1-1.18-1.75-.38-.6-.91-1.81-1.37-2.46a3.83 3.83 0 0 0-2-1.45c-.16-.06-3.63-4.27-5.99-4.43-3.36-.22-6.66-.23-9.86 1-.62.25-1.18.48-1.54 1.1-.19.32-.57.49-.91.68-1.71.94-3.2 2.23-4.3 3.77-.66.93-1.23 1.94-1.64 3-.02.04-.52 1.61-.63 2.38-.23 1 .13 3.04.36 4.37.24 1.34 1.2 3.34 2.2 4.58 1 1.23 4.58 3 6.78 3.87 4.87 1.4 5.94-1.74 6.41-2.1.48-.37-1.46-.27-1.7-.69-.12-.19-.3-.62-.14-.85.19-.28.74-.34.96-.28.34.09.72.11.98.37.52.54 1.4.96 1.77.45.52-.71 1.21-.42 1.74-.75a6.38 6.38 0 0 0 .25-2.88c-.06-.3-.23-.64-.53-.16-.15.25-.3.4-.55.22-.3-.22-.42-.55-.2-.86.24-.36.58-.66.87-.98.2-.22.57-.4.49-.7-.3-1.1.52-1.7 1.07-2.29a3 3 0 0 0 .61-3.37c-.56-1.42.13-2.46.71-3.57.12-.22.32-.47.64-.38.25.08.34.35.34.58 0 1.3.64 2.29 1.53 3.17.45.45.4.9-.01 1.4-.8.97-1.7 1.82-2.63 2.64-.38.33-1.31 1-1 1.33.3.34 1.07-.46 1.44-.87 1.26-1.37 1.92-1.53 3.7-1.33.5.06 1.37-.12 1.7.82.04.13.08.53-.1.8-.1.15-.88.02-1 .12-.15.11.38.44.45.5.1.08.79.57 1 .55.2-.03.38-.1.18-.59-.14-.35.75-.02.98.24.29.3.9-.26 1.09-.49.27-.31.7-.74.98-1.05.3-.32.2-.61.2-.88.02-.46-.09-.87-.62-1.4M146.59 78.61s.06-.28.42-.6c.25-.21 1.42-1.07 1.8-1.26.37-.2.94-.58 1.23-.41.29.16.59.4.53.65-.05.24-1.73.66-1.99.9-.25.24-.8.8-1.06 1.08-.3.3-.4.46-.68.37-.2-.29-.25-.49-.25-.73M154.97 89.78s.87-1.18 1.46-.65c.58.52 2.23.88 2.45 1.16.22.27 0 .34-.15.36-.15.01-2.19-.5-2.92-.45-.8.06-1.1.26-.84-.42M149.02 75.8c.47-.19 1.04-.32.48-.72-.3-.2-.98-.06-1.3.24 0 0-1.78 1.45-2 1.77-.15.22.2.3.26.32.17.05 2.37-1.54 2.56-1.61M80.26 120.05a5.66 5.66 0 1 1 .48-11.29 4.75 4.75 0 1 0 4.62 8.08 5.65 5.65 0 0 1-5.1 3.21m9.38-3.14c-.57-1.9-5.15-7.76-6.11-9.37-.36-.6-.87-3.57-2.02-5.1-.96-1.28-.73-1.46-.73-1.55 0-.19 2.3.03 2.36.02.54-.06 1.1-.33 1.54-.29.44.04 1 .24 1.42.69.24.26.74 1.38.82.8a2.31 2.31 0 0 0-.2-1.34c-.53-1.11-1.67-1.7-2.92-2.15-.54-.2-2.02-.25-2.64.25-.3.24-.46.6-.7.9 0 .01-.31.36-.48.3-.01 0 .05-.3-.07-.51a.86.86 0 0 0-.51-.35c-.45-.02-1.05.1-1.4.41-.66-.74-2.01-1.22-2.68-1.5-1.5-.64-4.75-.12-4.75-.12-.42 1.71 2.71 2.7 3.97 2.76.61.03 1.11-.19 1.67-.25.5-.06 1.02 0 1.52.09.03.09.07.18.13.28.1.18.24.29.4.36h-.01c-.17.08-1.45.8-2.19 2.14-.85 1.52-1.7 3.56-1.99 4.16a63.5 63.5 0 0 1-4.19 6.63c-.32.35-.58.67-.78 1.1-.7 1.49.01 3.35.47 4.9.3 1.01 1.48 1.54 2.38 2.05.91.52 1.6 1.17 2.58 1.45 1.54.43 3.2.2 4.77.07 3.23-.25 6.94.64 8.84-2.7.67-1.19 1.9-2.74 1.5-4.13M201.72 73.69c-.91.03-1.84 1.13-1.84 1.13s-7.7 2.44-12.17 3.72c0 .66.12 1.11.6 1.6l.32.35c5.18-1.33 11.85-2.78 12.8-3.5 1.18-.9 1.2-3.34.29-3.3"/>
    <path d="M75.33 101.29c-8.71 2.54-19.47 5.73-19.47 5.73s.04 1.6.83 1.2c.78-.4 6.66-2.1 6.66-2.1s2.05.07 2.23-.34c.45-.23 4.26-1.45 9.2-2.97.46-.44 1.47-1.22 2.08-1.52-.32-.16-1.08-.05-1.53 0M136.97 84.32c-2.39.36-14.6 1.14-14.6 1.14l-1.57-.5s-1.06.67-.65.92c.4.26-4.32 1.35-4.32 1.35s-.86-.19-.7.55c-1.41.24-5.02 1.35-5.02 1.35s-5.98 5.05-8.1 5.08c-2.12.02-13.02 2.85-16.07 4.05l-.58.15c.43.3.94.52 1.4.77 6.8-2 12.71-3.65 13.15-3.5 1.02.33 2.36.09 3.81-.46 1.46-.56 8.13-5.08 8.13-5.08L122 87.33s15.85-2.38 23.72-1.8a4.6 4.6 0 0 0 1.16-1.62c-2.32-.1-5.47 0-9.92.41M177.34 81.68l-1.37.16s-11.7 1.07-18.24 1.35c.81.63 2.2.98 2.87 1.7 4.45-.2 13.44-1.44 17.8-1.78-.7-.6-.56-.74-1.06-1.43"/>
    <g>
      <path d="M73.15 254.36c.13-.65.16-.96.26-1.24 1.36-3.66 1.16-7.33.03-10.99-.16-.5-.64-.91-.97-1.36-.35.38-.8.72-1.03 1.16-2.14 4.28-4.25 8.58-6.36 12.88-.92 1.87-1.18 1.96-3 .94-2.81-1.58-2.66-1.5-1.14-4.35 2.92-5.47 5.65-11.04 8.44-16.57.72-1.43 1.37-2.89 2.13-4.3.73-1.37 1.41-1.44 2.29-.17 2.57 3.72 5.15 7.45 5.52 12.17.01.16.15.32.37.76l7.55-6.29c.77 2.39 1.68 4.61 2.2 6.93.5 2.16.75 4.41.81 6.63.14 4.62-1.65 8.66-4.39 12.24-.82 1.08-2.15 1.8-3.32 2.57-.36.24-1.04.3-1.43.12-1.36-.59-2.66-1.32-4.14-2.07 1.08-.53 2.06-.89 2.91-1.44 3.26-2.12 4.8-5.32 5.27-9.03.2-1.57.12-3.2-.02-4.78-.11-1.3-.62-1.48-1.72-.73-2.86 1.95-5.69 3.95-8.54 5.92-.46.32-.96.56-1.72 1M262.37 168.41c.42.65.73 1.17 1.09 1.66 2.76 3.76 3.83 7.9 2.88 12.52-.27 1.31-.85 1.57-2.12 1.2-7.83-2.26-15.7-4.46-23.54-6.7-1.7-.48-1.84-.75-1.32-2.42 1.07-3.5.43-3.53 4.36-2.37 4.93 1.46 9.9 2.79 14.87 4.13.53.15 1.13.04 1.7.04-.03-.56.05-1.17-.12-1.7-1.26-3.87-3.82-6.87-7-9.2-1.43-1.04-3.5-1.2-5.3-1.73-1.26-.38-2.54-.73-3.82-1.06-.88-.23-1.17-.67-.88-1.6 1.45-4.51.46-4.13 4.98-2.87 7.16 2 14.32 3.99 21.47 6 1.6.44 1.67.62 1.2 2.23l-.14.52c-.87 2.93-.33 3.1-3.87 2.09-1.23-.35-2.47-.64-3.7-.95-.12-.02-.26.07-.74.21M132.85 4.62c-4.71.1-4.71.1-4.34 4.51l.02.28c.06.75.42 1.1 1.18.83 2.35-.85 4.72-1.65 7.02-2.64.58-.24.9-1.11 1.33-1.7-.69-.42-1.33-1.07-2.08-1.23-1-.21-2.08-.05-3.13-.05zm-9.26 9.5c0-4 .03-8.02-.01-12.03-.02-1.27.4-1.82 1.73-1.8 3.87.07 7.75 0 11.62.1 1.35.04 2.7.33 4.03.66 4.4 1.08 4.5 6.35 2.2 8.5-.96.9-2.22 1.54-3.44 2.1-1.27.6-1.35.71-.47 1.76.49.58.91 1.25 1.23 1.94 1.77 3.8 3.5 7.62 5.23 11.43.46 1 .23 1.28-.9 1.23-1.19-.04-2.38-.14-3.55-.01-.94.1-1.3-.27-1.6-1.06-1.33-3.54-2.71-7.06-4.05-10.6-.88-2.34-1.52-2.35-3.9-1.7-2.76.77-3.54 2.3-3.32 4.93.19 2.31.03 4.65.08 6.97.03 1.16-.38 1.64-1.6 1.57-3.79-.22-3.23-.32-3.25-3.18-.03-3.6 0-7.2 0-10.8h-.03zM189.7 246.97c-.39-.86-.97-1.1-1.87-.68-1.78.83-3.57 1.62-5.37 2.4-1.12.49-1.16 1.17-.43 2.01 1.86 2.13 3.67 4.3 5.6 6.36a4.44 4.44 0 0 0 5.53.86c.84-.44 1.11-.94.67-1.85-.72-1.48-1.35-3-2.02-4.5l-.05.02-2.06-4.62m5.83-.38l2.06 4.62c1.01 2.34 2 4.7 3 7.04.47 1.07.23 1.77-.93 2.24-1.9.75-3.75 1.66-5.65 2.45-2.07.86-4.27 1.1-6.18-.14a41.92 41.92 0 0 1-5.96-4.7c-1.65-1.55-3.02-3.4-4.5-5.13-2.39-2.8-4.76-5.63-7.14-8.45-.62-.72-.54-1.33.35-1.73 1-.45 1.98-.97 3.03-1.25.47-.13 1.23.1 1.6.45.78.75 1.31 1.77 2.11 2.5.4.36 1.3.6 1.77.41 2.33-.9 4.6-1.98 6.9-2.98.72-.32.93-.81.6-1.53-.39-.88-.75-1.76-1.18-2.62-.47-.93-.29-1.54.7-1.93.86-.34 1.7-.7 2.5-1.12.82-.41 1.31-.32 1.7.6 1.66 3.8 3.37 7.57 5.05 11.35l.17-.08M17.06 169.32c.93-.2 1.3-.71 1.07-1.68-.43-1.92-.83-3.84-1.2-5.76-.24-1.2-.9-1.38-1.88-.84-2.47 1.36-4.98 2.66-7.4 4.12a4.44 4.44 0 0 0-2 5.21c.24.92.67 1.3 1.65 1.06 1.6-.39 3.21-.69 4.82-1.02v-.05l4.94-1.04m-.86 5.78c-1.65.34-3.3.7-4.95 1.03-2.5.5-5.01.96-7.51 1.45-1.15.22-1.79-.16-2-1.4-.32-2.02-.82-4.02-1.19-6.03-.4-2.22-.16-4.41 1.45-6.02a41.95 41.95 0 0 1 5.86-4.82c1.87-1.29 3.96-2.24 5.97-3.32 3.25-1.74 6.5-3.46 9.76-5.19.84-.44 1.42-.24 1.62.72.23 1.07.53 2.14.58 3.22.02.5-.37 1.18-.78 1.47-.9.6-2 .9-2.88 1.54-.45.32-.87 1.13-.8 1.64.4 2.47.97 4.91 1.46 7.37.15.78.6 1.09 1.37.92.93-.2 1.88-.36 2.8-.6 1.01-.26 1.57.05 1.74 1.1.15.9.33 1.8.56 2.68.23.88.04 1.35-.94 1.54-4.06.8-8.1 1.68-12.16 2.52l.04.18M39.72 78.97c.14-1.47.34-2.84.39-4.21.06-1.86.08-3.73-.04-5.59-.02-.39-.66-.95-1.1-1.07-2.2-.59-4.43-1.07-6.66-1.57-4.7-1.05-9.4-2.09-14.1-3.1-.98-.22-1.29-.57-.55-1.45.9-1.08 1.68-2.28 2.65-3.3a2 2 0 0 1 1.59-.53c5.29 1.2 10.55 2.49 15.83 3.74.4.1.8.14 1.21.2.74.1.99-.26.92-.96-.48-4.67-1.6-9.1-4.99-12.58-.86-.88-2.03-1.5-3.15-2.08-.87-.47-1.07-.91-.42-1.67.92-1.07 1.77-2.2 2.79-3.17.34-.32 1.22-.49 1.63-.28 3.55 1.85 6.22 4.52 7.7 8.33 1.78 4.58 2.16 9.4 2.54 14.21.18 2.22.2 4.45.22 6.68 0 .51-.18 1.13-.49 1.53-1.76 2.26-3.58 4.48-5.4 6.7-.06.09-.24.08-.57.17M246.44 55.83c-2.77.45-5.35.74-7.86 1.32-3.62.83-7.06 2.1-9.56 5.14-1.77 2.15-2.46 4.58-.71 6.69.23.28.52.55.84.71.77.4 1.55.8 2.37 1.07 4.46 1.48 5.42 1.22 9.72-2.17 2.75-2.17 5.6-4.23 8.37-6.37.74-.58 1.26-.55 1.8.24.6.9 1.28 1.78 1.95 2.64.56.72.5 1.25-.28 1.81-4.7 3.39-9.37 6.79-14.02 10.23-.96.71-1.83 1-3.02.62-2.3-.74-4.69-1.18-6.94-2.02-7.64-2.85-9.9-10.64-3.84-17.2 4.34-4.69 9.98-6.47 16.02-7.44 1-.16 1.79.16 2.38.98l2.78 3.75"/>
    </g>
  </g>
</svg>
