<?xml version="1.0" encoding="utf-8"?>
<!-- Generator: Adobe Illustrator 16.0.0, SVG Export Plug-In . SVG Version: 6.00 Build 0)  -->
<!DOCTYPE svg PUBLIC "-//W3C//DTD SVG 1.1//EN" "http://www.w3.org/Graphics/SVG/1.1/DTD/svg11.dtd">
<svg version="1.1" id="Layer_1" xmlns="http://www.w3.org/2000/svg" xmlns:xlink="http://www.w3.org/1999/xlink" x="0px" y="0px"
	 width="342px" height="396px" viewBox="0 0 342 396" enable-background="new 0 0 342 396" xml:space="preserve">
<path fill="#FB3B3B" d="M186.14,195.18h0.03l0.01-0.03h-0.04V195.18 M136.57,287.2c-0.14-0.88-0.699-1.79-0.529-2.72
	c0.16-0.94-0.23-1.121-1.03-1.051c-0.23,0.041-0.47,0.24-0.61,0.43c-0.51,0.681-1.13,1.301-1.5,2.101c-0.449,1-0.899,2-1.5,2.95
	c-1.06,1.63-2.6,2.8-3.84,4.22c-1.55,1.761-3.08,3.53-4.7,5.2c-1.729,1.79-3.689,3.37-5.34,5.21c-3.34,3.729-6.72,7.399-10.16,11.04
	c-4.88,5.141-9.58,10.439-14.39,15.65c-1.83,1.979-3.61,4.01-5.86,5.58c-0.649,0.449-1.25,0.99-1.81,1.529
	c-0.57,0.551-0.771,1.301-0.42,1.971c0.31,0.6,1.02,0.6,1.66,0.469c0.439-0.1,0.85-0.039,1.279,0.101
	c1.181,0.351,1.601,0.171,1.96-0.979c0.32-0.99,0.591-2,1.23-2.84c1.2-1.57,2.4-3.131,3.63-4.681c2.28-2.87,5.01-5.351,7.46-8.069
	c3.12-3.48,6.42-6.801,9.67-10.17c4.021-4.17,8.25-8.15,12.29-12.311c1.3-1.34,2.67-2.67,3.771-4.13
	c1.449-1.931,3.899-4.57,4.64-5.5c0.73-0.91,1.25-1.899,2.63-2.3C136.49,288.52,136.78,288.641,136.57,287.2 M196.02,197.26
	c-0.837-1.554-2.081-2.851-3.6-3.75c-0.36-0.2-0.3-0.2-1-0.45c-0.72-0.23-1.32,1.17-1.11,1.79c0.2,0.62,0.03,0.96-0.3,1.4
	c-0.33,0.43-0.79,1.14-1.35,0.71c-0.68-0.592-1.511-0.983-2.4-1.13c-1.15-0.19-3.53,0.47-3.98,0.56c-0.77,0.16-1.5,0.41-2.17,0.84
	c-0.229,0.14-0.979,1.19-1.12,1.581c-0.22,0.619-0.89,2.379-0.939,2.699c-0.1,0.631-0.23,1.41,0.38,1.87
	c1.11,0.819,1.03,1.931,0.86,3.06c-0.15,1-0.34,2-0.551,3c-0.729,3.461-1.42,6.94-2.579,10.301c-1.5,4.3-10.79,26.699-11.61,28.119
	c-2.2,3.82-4.47,7.58-6.8,11.32c-2.471,3.961-4.66,8.1-7.84,11.6c-2.16,2.361-4.431,4.261-7.851,4.82
	c-3.729,0.61-3.62,4.881-1.64,6.15c1.979,1.279,5.62,3.73,7.49,3.529c1.399-0.149,2.76-0.549,3.5-1.779
	c0.619-1.04,2.34-2.779,2.75-4.13c0.409-1.36,2.279-5,3.659-7.399c4.854-8.586,9.479-17.299,13.87-26.131
	c3.403-6.626,6.233-13.531,8.46-20.641c1.431-4.699,3.08-9.299,4.7-13.93c0.271-0.779,1.4-3.199,1.84-3.779
	c0.44-0.57,0.67-1.18,1.2-1.221c0.53-0.049,2.2-0.67,3.25-1.399c0.5-0.351,1.04-1.271,0.22-1.89c-0.46-0.351-0.26-0.83,0.13-1.07
	c0.801-0.5,1.551-1.42,2.69-0.61c0.31,0.22,0.65,0.11,0.97-0.13c1.08-0.84,1.54-2.72,0.87-3.9 M145.24,287.57
	c-0.63-0.791-1.34-1.5-2.13-2.15c-0.43-0.35-2.25-2.05-2.729-2.49c-1.16-0.66-2.46-0.699-3.24-0.14c-0.82,0.59,0.09,1.92,1.01,3.25
	s1.04,1.44,0.301,2.53c-0.721,1.1-8.271,10.4-9.711,11.869c-3.369,3.44-7,6.641-10.369,10.08
	c-2.061,2.101-20.74,21.141-21.591,22.16c-1.02,1.221-6.6,6.1-4.39,7.02c0.07,0.031,2.271,0.98,3.42,1.091
	c1.24,0.12,2.12-0.479,2.48-1.521c0.77-2.229,2.069-4.16,3.38-6.08c1.34-1.959,9.21-10.539,11.87-12.779
	c2.92-2.471,5.92-4.83,8.68-7.49c2.3-2.23,17.21-17.04,18.48-18.08c1.769-1.53,3.337-3.277,4.67-5.199
	C145.91,288.92,145.75,288.21,145.24,287.57 M242.28,141.37c-3.29-1.43-6.6-2.82-9.88-4.27c-0.59-0.26-1.31-0.41-1.689-1.11
	c0.63-0.25,1.05,0.1,1.52,0.26c1.48,0.47,2.86,1.28,4.471,1.27c0.319,0,0.77,0.2,0.899-0.27c0.14-0.48-0.149-0.83-0.6-0.98
	c-1-0.35-1.98-0.72-3-1c-4.681-1.32-9.41-2.48-14.03-4.02c-1.21-0.4-2.46-1.02-3.68-1.56c-0.931-0.41-1.83-0.87-2.74-1.3
	c-1.14-0.55-2.39-2.26-3.1-2.08c-0.721,0.18-0.2,1.86-0.07,2.17c0.62,1.4,5.83,4.48,6.2,4.64c2.05,0.92,4.06,1.94,6.069,2.97
	c2.979,1.45,6.104,2.58,9.32,3.37c3.33,0.9,6.3,2.7,9.52,3.86c0.771,0.28,1.471,0.45,1.851-0.5
	C243.74,141.8,242.91,141.64,242.28,141.37 M232.81,100.54c2.67,0.5,5.36,0.92,8.04,1.36c1.99,0.34,4,0.58,5.86,1.48
	c1.16,0.57,2.149,1.38,3.12,2.23c0.239,0.22,0.56,0.48,0.939,0.31c0.3-0.13,0.26-0.44,0.271-0.72c-0.15-1.6-1.23-2.69-2.431-3.38
	c-2.899-1.68-6.12-2.43-9.449-2.72c-1.971-0.17-3.95-0.37-5.921-0.58c-0.8-0.08-1.77-0.17-1.989,0.7
	C231,100.27,232.11,100.41,232.81,100.54 M228.48,103.69c-0.02,0.48,0.351,0.66,0.78,0.68c0.96,0.04,1.67,0.59,2.37,1.16
	c0.27,0.23,0.54,0.4,0.899,0.48c2.11,0.52,4.221,1.08,6.341,1.57c4.439,1.03,9.17,1.03,13.18,3.66c0.68,0.45,1.09,0.01,1.06-0.78
	c0.011-1.18-0.5-1.79-2.02-2.56c-2.53-1.28-5.26-1.9-8-2.54c-3.63-0.84-7.44-0.7-11.03-1.87c-0.84-0.27-1.75-0.32-2.64-0.43
	C228.96,103,228.51,103.14,228.48,103.69 M226.68,108.16c0.33,0.8,0.8,1.62,1.9,1.88c4.31,0.99,8.6,2.18,12.93,3.09
	c3.96,0.83,7.72,2.08,11.12,4.28c0.399,0.26,0.729,0.26,0.79-0.21c0.1-0.8,0.22-1.69-0.65-2.2c-2.64-1.55-5.18-3.32-8.27-3.95
	c-1.181-0.23-2.34-0.59-3.5-0.9c-4.411-1.133-8.881-2.021-13.391-2.66C227.23,107.69,226.28,107.21,226.68,108.16 M224.85,112.89
	c-0.16,0.26,0.021,0.5,0.2,0.59c1.13,0.48,1.729,1.63,2.76,2.2c1.09,0.6,2.23,1.1,3.45,1.41c3.95,1.03,7.89,2.13,11.86,3.1
	c3.21,0.77,5.989,2.36,8.569,4.34c1.38,1.05,1.61,1.04,2.29-0.59c0.5-1.22,0.391-1.5-0.83-2.05c-0.67-0.31-1.34-0.63-2-0.96
	c-2.12-1.06-4.069-2.44-6.39-3.1c-4.23-1.2-8.43-2.49-12.67-3.66c-2.17-0.6-4.351-1.22-6.5-1.48
	C225.26,112.69,225,112.66,224.85,112.89 M232.12,94.82c1.59,1.22,3.439,1.46,5.369,1.64c3.62,0.33,7.5,0.01,10.29,3.43
	c0.23-1.47-1.119-3.87-2.239-4.32c-3.705-1.437-7.62-2.258-11.59-2.43c-0.5-0.03-1.011-0.07-1.5,0.1c-0.4,0.12-0.921,0.16-0.98,0.68
	C231.41,94.36,231.81,94.58,232.12,94.82 M222.31,351.18c1,0.32,0.851-2.66,2.86-8.859c0.96-2.98,2.74-6.75,3.87-10.65
	c1.52-5.23,2.939-10.891,4.77-17.1c1.26-4.26,2.42-8.57,3.4-12.551c2.2-8.84,4.56-12.479,3.439-12.879
	c-1.12-0.391-5,12.489-9.58,28.189C226.72,332.2,221.32,350.859,222.31,351.18 M227.79,359.26c0.64,0.44,1.52,0.18,2.16-0.27
	c0.239-0.17,0.39-0.5,0.64-1.24c0.42-1.25,0.899-1.55,0.77-4.58c-0.078-1.48-0.005-2.965,0.221-4.43
	c1.46-8.77,4.14-17.189,7.29-25.471c1.443-3.83,2.744-7.713,3.899-11.64c1.141-3.84,2.351-7.659,3.55-11.5
	c1.261-4.021,5.091-14.46,5.311-15.61c0.31-1.629,0.02-2.899-2.26-2.1c-1.23,0.439-5.631-1.01-7.04-0.85
	c-1.88,0.209-2.551,3.75-1.4,4.5c1.17,0.77,2.59,2.02,2.62,3.07c0.04,1.06-5.79,25.049-7.78,31.629
	c-2.1,6.951-9.22,25.681-9.43,27.281c-0.08,0.6-0.22,2.359-0.7,3.529c-0.26,0.63-0.6,0.641-0.89,0.85
	c-0.811,0.621-0.24,0.5-2.17,0.631c-0.601,0.039-1.271,1.039-1.46,1.649c-0.42,1.41,0.31,1.899,2.34,2.72
	C223.46,357.43,225.35,357.609,227.79,359.26 M239.96,373.141c0.279-0.301,1.149-0.23,1.38-0.24c0.229,0,1.649,0.4,2.399,0.629
	c1.58,0.511,2.9,1.5,4.341,2.281c0.75,0.399,1.25,0.93,1.569,1.539c0.16,0.301,0.62,1.951,1.5,2.23c0.73,0.23,7.71-0.2,8.841,0.33
	c1.079,0.5,2.3,0.34,3.359,0.93c0.44,0.25,0.94,0,1.25-0.369c0.5-0.621,1.07-0.92,1.92-0.941c0.9-0.029,1.4-0.699,0.561-1.359
	c-1.91-1.529-4.29-2.22-6.49-3.23c-0.04-0.02-4.4-0.779-6.66-0.68c-1.649-0.025-3.232-0.656-4.45-1.77c-2.45-2.1-5.76-3.1-7.55-6.04
	c-0.14-0.229-0.4-0.399-0.64-0.54c-2.021-1.24-4.29-2-6.48-2.74c-1.31-0.439-2.53-0.8-3.66-1.65c-1-0.77-4.159,0.34-4.989,0.061
	c-1.301-0.45-2.66-0.66-3.42-2.16c-0.738-0.799-1.726-1.324-2.801-1.49c-0.863-0.119-1.739,0.096-2.449,0.6
	c-1.03,0.671-0.841,2.441-0.54,3.171c0.189,0.44,0.43,0.87,0.1,1.3c-0.4,0.529-0.98,0.52-1.54,0.43c-1.02-0.16-1.76-0.8-2.47-1.5
	c-1.011-1.02-2.38-1.119-3.12-0.33c-1.4,1.471-2.021,5.371-0.91,7.101c0.32,0.5,1.56,3.909,5.69,4.88
	c0.579,0.13,7.54,0.24,11.439-6.4c1.521,0,2,4.66,3.38,4.98C232.85,372.96,238.99,374.18,239.96,373.141 M220.09,189.58
	c-0.51-2.3-1.95-4.3-2.3-6.6c-1.101-7.1-4.7-5.72-6.29-6.4c-1.37-0.59-2.12-3.58-2.82-5.32c-0.474-1.168-0.878-2.364-1.21-3.58
	c-0.2-0.76-0.48-2.73-1.23-3.23s-2.75-0.54-3.1,0.07c-0.7,1.28,0.47,2.45,1.1,3.62c0.7,1.33,0.37,3.18,0.461,4.82
	c0.05,1-0.9,7.07,0.1,7.7c0.99,0.64,2.1,0.27,3.1,1.04c1.021,0.76,1.101,1.86,1.13,3.64c0.068,1.401-0.317,2.787-1.1,3.95
	c-0.89,1.42-3.55,0.44-4.45,1.27c-0.1,0.1-0.58,1.49-0.529,2.73c0.069,1.5-0.24,2.91-1.5,3.29c-1.271,0.37-1.171-0.92-3.131-0.56
	c-0.63,0.32-0.88,0.79-0.8,1.52c0.13,1.16,0.22,2.351-0.25,3.46c-0.482,1.093-0.408,2.352,0.2,3.38c0.1,0.181,1.24,0.79,1.99,1.021
	c0.59,0.18,2.7,0.25,3.149,0.16c0.4-0.08,1.87-0.681,2.301-1.201c0.449-0.51,0.449-1.779,0.619-2.689
	c0.221-1.23,0.9-1.869,2.131-1.9c1.42-0.039,2.3-0.799,2.979-1.919c0.2-0.33,0.38-0.68,0.561-1.03c0.97-1.76,2.76-2.08,4.47-2.4
	c0.85-0.16,2.1-0.58,3.01-0.94c0.47-0.19,1.6-0.86,1.68-2.5C220.3,190.52,220.19,190.05,220.09,189.58 M206.71,183.23
	c-0.95-0.53-3.03-0.01-3.92-0.93c-0.9-0.92-0.141-2.1-0.141-5.85c0.011-3.66,1.061-6.3-1.149-9.49c-0.91-1.31-3.7-0.38-4.84,0.33
	c-1.511,0.95-3.011,1.9-4.341,3.12c-1.6,1.48-3.35,2.83-4.029,5.01c-0.3,0.97-5.94,6.38-6.12,6.75c-0.03,0.06-1.87,2.37-2.97,4.49
	c-0.801,1.55-1,3.01-0.82,3.36c0.677,1.205,1.625,2.236,2.77,3.01c1.29,0.75,2.88,0.86,5.03,0.39c1.83-0.4,3.55-1.85,4-1.98
	c1.53-0.44,4.61,1.55,5.49,2.5c0.82,0.87,1.8,1.5,3.09,0.8c0.33-0.18,0.69-0.07,1.02,0.06c0.33,0.14,0.87,0.29,1.4-0.05
	c0.521-0.34,0.44-1.25,0.53-1.94c0.1-0.7-0.15-2.58-0.101-2.9c0.101-0.61,0.48-0.95,1.08-1.06c0.46-0.1,2.37-0.05,3.2-0.12
	c0.8-0.06,1.36-1.24,1.45-2.34C207.47,184.86,207.67,183.77,206.71,183.23 M253.39,272.34c-0.376-0.857-0.96-1.607-1.7-2.18
	c-1.62-1.359-3-2.939-3.97-4.85c-0.71-1.4-3.14-7.391-6.85-13.631c-3.181-5.35-15.851-23.34-19.61-27.619
	c-3.12-3.561-14.08-14.451-14.88-15.531c-0.771-1.049-0.3-2.109-0.69-2.34c-0.8-0.459-1.54,1.75-3.399,1.781
	c-1.94,0.039-3.061-1.4-3.42-0.33c-0.101,0.33-0.95,2.389,0,3.92c0.93,1.529,3.659,2.529,4.18,2.379c0.67-0.149,0.57-1,0.88-1.279
	c0.47-0.43,1.2-0.24,1.61,0.27c0.8,0.98,14.279,15.141,20.819,24.061c5.54,7.55,10.19,14.6,10.74,15.369
	c1.33,1.841,6.45,10.591,8.17,20.221c0.351,1.97-0.189,3.48-0.37,4.26c-0.09,0.45-1.22,0.721-1.35,1.48
	c-0.1,0.55,0.689,1.58,1.06,2.05c0.78,0.979,2.971,1.22,3.95,1.2c2.38-0.061,4-1.95,5.17-4c0.23-0.4,0.431-0.631,0.641-1.25
	C254.73,275.221,253.53,272.67,253.39,272.34 M212.62,165.4C212.19,164.96,212.64,165.45,212.62,165.4 M214.33,166.23
	c-0.78-0.2-1.28-0.39-1.71-0.83c0.02,0.05-0.431-0.44,0,0c-0.631-0.85-1.971-5.82-4.101-7.58c-0.16-0.05-0.33-0.14-0.479-0.19
	c-0.552-0.2-1.134-0.301-1.721-0.3c-1.3,0.023-2.396,0.976-2.6,2.26c-0.04,0.28-0.08,1.61,0.85,2.15c0.7,0.41,1.32,0.3,2.7,0.36
	c1.391,0.07,1.59,3.52,1.72,4.03c0.131,0.51,0.891,3.29,1.711,4.13c0.829,0.83,1.569,1.57,2.35,1.97s1.8,0.8,3.58,1.26
	c0.37,0.1,0.58-0.2,0.68-0.5c0.452-1.373,1.095-2.676,1.91-3.87C219.72,168.24,217.75,167.7,214.33,166.23 M218.06,149.15
	c0.3-0.62-1.64-0.92-2.1-1.23c-0.74-0.5-1.87-2.14-2.15-2.44c-0.75-0.83-1.75-1.92-3.67-1.42c-0.86,0.23-1.29,0.65-1.4,1.47
	c-0.09,0.62-0.18,1.24-0.199,1.86c-0.021,0.74,0.26,1.1,1.13,1.04c1.04-0.08,1.53,0.22,3.03,0.67
	C214.19,149.54,217.96,149.5,218.06,149.15 M222.04,159.5c-1.19-0.42-3.75-0.48-4.7-0.67c-0.95-0.2-2.33-1.33-3.93-1.17
	c-1.45,0.15-2.23,1.52-1.73,2.1c0.5,0.59,3.1,3.63,3.521,3.78c1.52,0.6,3.069,1.14,4.619,1.66c0.53,0.18,1.16,0.26,1.261-0.55
	c0.159-1.4,0.819-2.59,1.47-3.78c0.37-0.67,0.17-1.14-0.51-1.38 M223.25,151.5c-0.7-0.08-2.25-0.4-4.07-0.35
	c-1.28,0.04-2.7,1.42-4,1.42c-2.5,0-6.11-1.18-6.8-1.24c-0.8-0.06-1.42,0.07-1.63,0.94c-0.271,1.12-1.16,2.24-0.12,3.4
	c0.25,0.29,0.63,0.27,0.979,0.32c0.24,0.03,2.62,0.22,5.021,0.04c2.24-0.16,4.51-0.7,5.07-0.67c0.42,0.01,0.84,0.13,1.26,0.21
	c1.189,0.23,2.37,0.47,3.56,0.68c0.76,0.13,1.2-0.12,1.13-1c-0.06-0.77-0.13-1.57,0.32-2.27c0.58-0.9,0.09-1.37-0.72-1.47
	 M238.38,146.27c-1.601-0.7-6.43-2.43-6.271-3.2c0.15-0.8,0.16-1.29-0.479-1.47c-2.43-0.7-4.86-1.44-7.3-2.12
	c-1.58-0.44-3.42-0.8-4.46-1.88c-1.141-1.18-2.53-1.02-3.721-1.65c-1.699-0.89-3.26-1.96-4.71-3.22l-0.37-0.32
	c-0.22-0.18-0.529-0.58-1.159,0.11c-0.53,0.58,0.35,1.32,0.55,1.54c0.29,0.32,0.319,0.65-0.07,1c-2.08,1.77-0.58,3.23-0.52,3.32
	l0.06,0.1c0.03,0.05,0.07,0.1,0.11,0.13l-0.11-0.13c0.3,0.5,1.21,1.85,1.88,2.42c2.94,2.83,10.891,6.3,11.271,6.5
	c1.27,0.67,2.42,1.59,3.859,1.92c0.44,0.1,0.88,0.1,1.15-0.33c0.32-0.53-0.17-0.75-0.47-1.03c-0.181-0.15-0.381-0.28-0.561-0.42
	c-4.07-3.08-8.59-5.48-12.7-8.5c-0.229-0.16-0.71-0.2-0.51-0.62s0.601-0.27,0.92-0.11c7.36,3.743,14.929,7.058,22.67,9.93
	c0.761,0.28,1.44,0.2,1.78-0.58c0.34-0.76-0.23-1.12-0.84-1.4 M251.4,128.37c-0.17-0.89-0.819-1.31-1.59-1.56
	c-2.439-0.79-4.899-1.58-7.35-2.32c-4.561-1.37-9.24-2.27-13.771-3.72c-1.77-0.57-3.56-1.18-5.439-1.34
	c-1.08-0.08-1.641,0.87-1.03,1.93c0.18,0.3,0.51,0.52,0.68,0.59c2.42,1,4.95,1.65,7.471,2.32c2.449,0.65,4.779,1.69,7.31,2.03
	c2.4,0.33,4.68,1.18,7.06,1.66c1.711,0.34,3.37,0.96,4.91,1.82c0.5,0.28,1.08,0.42,1.54,0.02c0.44-0.37,0.3-0.93,0.2-1.43
	 M247.32,135.54c-0.08-0.83-0.699-1.08-1.33-1.28c-3.239-1.021-6.229-2.65-9.409-3.83c-1.391-0.52-2.801-0.97-4.141-1.6
	c-3.378-1.517-6.856-2.799-10.41-3.84l-0.399-0.12c-0.61-0.2-2.601-0.93-2.96-1.07c-2.851-1.13-5.7-2.26-8.41-3.67
	c-0.37-0.19-1.07,0.37-0.97,1.36c0.05,0.55,0.439,1.67,0.569,1.74c2.9,1.61,6.051,2.65,9.11,3.85c2.41,0.95,4.9,1.76,7.3,2.75
	c6.34,2.63,12.84,4.82,19.29,7.15C246.78,137.42,247.44,136.83,247.32,135.54 M218.1,119.19c-1.92-0.8-3.47-1.4-7.67-4.14
	c-0.62-0.3-1.46-0.47-1.729,0.5c-0.271,0.95,0.22,2.41,1,2.67c0.8,0.26,4.5,1.51,6.77,2.24c0.6,0.2,1.25,0.33,1.93,0.06
	C218.63,120.05,218.91,119.59,218.1,119.19 M222.48,62.45c-0.56-0.44-2.37,0.23-3.6,0.62c-1.16,0.37-2.101,0.95-2.25,1.06
	c-0.24,0.2-0.44,0.45-0.7,0.6c-0.39,0.24-1.06,1.4-1.54,1.64c-0.5,0.22-1.479,1.34-1.439,1.8c0.039,0.46,0.399,1.1,1.18,0.84
	c0.574-0.395,1.069-0.894,1.46-1.47c0,0,0.53-0.65,1.16-1.22c0.3-0.26,2.39-1.36,2.76-1.47c0.229-0.07,3.16-0.91,3.27-1.29
	C222.89,63.19,223.05,62.88,222.48,62.45 M223.54,66.4c-0.721-0.28-4.41,0.46-4.94,0.78c-0.53,0.33-0.93,1.4-1.74,1.65
	c-1.43,0.44-1.22,1.05-1.06,1.48c0.04,0.11,0.689,0.64,1.52,0.38c1.16-0.35,2.69-1.57,3.561-1.84c0.93-0.29,2.32-0.08,3.06-0.22
	c1.04-0.2,1.271-0.7,1.271-0.92C225.24,67.11,224.27,66.68,223.54,66.4 M221.69,85.85l0.2-0.4c0.08-0.4,0.18-0.82,0.3-1.23
	c-0.695-0.504-1.469-0.889-2.29-1.14c-0.5-0.13-2.71-0.48-4.68-0.43c-1.99,0.05-3.72,0.5-3.96,0.62c-0.57,0.31-0.74,1.21-0.61,1.6
	c0.08,0.27,0.351,0.66,1.2,0.62c1.48-0.1,1.79-1.2,4.5-0.84c1.101,0.15,3.021,1.05,4.271,1.6
	C221.06,86.29,221.48,86.21,221.69,85.85 M209.33,110.09c-0.62-0.3-1.23-0.49-1.86-0.01c-0.17,0.12-1.2,0.69-1.39,1
	c-0.198,0.536-0.22,1.121-0.061,1.67c0.17,0.35,1,0.34,1.75,0.25c0.33-0.03,1.12,0.04,1.561-0.33c0.59-0.49,0.8-1.46,0.739-1.65
	C209.97,110.69,209.68,110.26,209.33,110.09 M208.55,99.62c0-0.5-0.19-1.13-0.51-1.25c-0.32-0.11-0.74,1.24-0.88,1.39
	c-0.311,0.31-0.891,0.43-0.761,1.04c0.09,0.42,0.15,0.9,0.62,1.06c0.4,0.13,0.72,0.05,0.96-0.22
	C208.21,101.37,208.54,100.13,208.55,99.62 M208.28,103.17c-0.35,0-0.88,0.66-1.56,1.82c-0.44,0.75-0.72,1.59-1,2.3
	c-0.23,0.55-0.37,1.51,0.13,1.58c0.5,0.07,1.34-1.04,1.49-1.2c0.57-0.6,1.149-0.86,1.46-1.3c0.31-0.44,0.4-1.41,0.31-2.14
	C208.99,103.26,208.7,103.17,208.28,103.17 M235.6,80.39c-0.36-0.75-1.92-1.13-3-1.67c-1.72-0.88-3.79,2.53-4.91,3.4
	c-1.247,0.968-2.43,2.017-3.54,3.14c-0.72,0.75,0.2,2.68-1.34,3.06c-2.399,0.6-4.89-2.04-7.12-2.17c-2.12-0.13-5.52,0.98-6.41,4.5
	c-0.529,2.06,0.78,7.23,0.83,7.92c0.061,0.7,1.061,11.48,1.021,11.22c-0.04-0.18,0.42,2.08,1.25,3.59
	c1.086,1.584,2.795,2.631,4.7,2.88c1.069,0.13,3.85,0,4.899-2.32c0.83-2.6,1.521-5.8,2.181-7.54c1.439-3.82,2.359-7.86,5.279-10.97
	c0.431-0.45,0.771-1.96,0.721-2.47c-0.051-0.45-1.95-1.6-1.841-3.19c0.12-1.57-0.05-2.28,1-4c1.04-1.74,4.101-0.38,4.931-0.94
	c0.97-0.66,1.7-3.7,1.34-4.44 M225.44,72.63c0.74-0.42,0.9-0.94,0.75-1.5c-0.05-0.03-0.1-0.07-0.12-0.1
	c-0.59-0.56-3.31-0.16-4.479-0.1c-1.17,0.07-4.87,0.4-4.89,1.81c0,0.8,1.68,0.1,3.63,0.07c1.02-0.01,0.92,0.26,1.979,0.36
	C223.384,73.308,224.475,73.12,225.44,72.63 M231.09,75c-1-0.47-2.38-1.07-3.4-1.35c-1.029-0.28-3.45,0.72-3.6,1.72
	c-0.16,1,2.979,1.26,3.47,1.23c0.48-0.04,1.44-0.22,2.271,0c0.83,0.2,4.71,1.9,5,0.95C235.11,76.61,232.37,75.61,231.09,75
	 M225.3,78.17c-0.26-0.09-1.45,0.04-2.53-0.71c-1.12-0.79-2.149-2.47-3.08-2.6c-0.808-0.175-1.637-0.225-2.46-0.15
	c-0.84,0.1-1.31,0.26-1.75,0.92c-0.27,0.4-0.479,0.85-0.8,1.23c-1.04,1.1,0.9,1.24,1.82,1.1c1.399-0.22,3.08-0.45,4.12,0.1
	c0.33,0.17,0.569,0.63,0.77,1.05c1.317,1.129,3.14,1.461,4.771,0.87c1.079-1.36-0.311-1.61-0.87-1.8 M222.95,82.04
	c-0.23-0.1-1.931-0.62-2.271-1c-0.43-0.47-1.38-1.65-1.88-1.8c-0.5-0.17-1.88,0.04-3.4,0.1c-1.34,0.07-1.97-0.24-2.22-0.05
	c-0.26,0.2-1.45,1.24-1.47,2.1c-0.01,0.86,3.33-0.07,3.979-0.04c0.3,0.01,1.13-0.13,2.42,0.14c1.471,0.31,4.2,1.4,4.44,1.29
	c0.02-0.02,0.439,0,0.53-0.14C223.2,82.48,223.18,82.14,222.95,82.04 M293.1,73.51c-0.3-0.271-1.67-1.1-2.03-1.31
	c-0.989-0.61-2.81-4.01-4.3-4.53c-1.404-0.612-2.39-1.912-2.6-3.43c-0.01-1.06-1.79-2.5-2.58-1.76c-0.8,0.73-0.62,1.74,0.24,2.36
	c1.52,1.1,2.22,2.7,3,4.3c1.55,3.15,4.3,4.83,7.52,5.86c0.4,0.13,1.05,0.41,1.271-0.2c0.149-0.44-0.181-0.97-0.53-1.29
	 M295.72,71.02c-1.84-1.58-2.53-3.96-4.07-5.75c-2.21-2.56-2.92-6.29-6.27-7.94c-0.46-0.23-1.47-0.04-2.061,0.81
	c-0.6,0.85,0.19,2.04,0.521,2.73c0.34,0.7,2.14,2.07,2.42,2.25c0.92,0.6,1.62,1.4,2.03,2.43c0.2,0.47,0.479,0.8,0.93,1.07
	c1.478,0.817,2.6,2.153,3.15,3.75c0.52,1.67,4.449,4.08,6.1,3.53C298.69,73.82,295.97,71.23,295.72,71.02 M298.909,78.53
	c-1.199,1.06-1.13,2.99,0.48,4.4c0.805,0.641,1.445,1.463,1.87,2.4c1.24,3.1,2.8,6.06,3.8,9.25c1.15,3.6,2.7,7.05,4.56,10.33
	c1.721,3.03,3.74,5.9,5.301,9.03c0,0,0.449,2,1.649,2.85c0.88,0.62,2.46,0.35,2.8-0.84c0.32-1.19-2.72-6.44-2.97-6.77
	c-1.1-1.46-6.46-11.6-7.83-15.28c-1.83-4.95-3.74-14.35-4.2-15.2c-0.46-0.85-1.199-1.3-2.38-1.34
	C300.56,77.31,300.119,77.46,298.909,78.53 M306.3,68.84c0.5-0.32,0.68-1.55,0.239-2.79c-0.199-0.54-0.829-1.14-1.069-1.57
	c-0.28-0.5-0.351-1.13-0.44-1.71c-0.35-2.34-0.78-5.59-1-7.03c-0.229-1.44-1.34-2.82-2-2.84s-1.12,0.46-1.04,1.59
	c0.5,2.96,2.11,7.49,2.181,8.87c0.02,0.54,0.109,2.23,0.64,3.28c0.82,1.6,2.04,2.48,2.479,2.2 M301.539,65.2
	c-0.31-0.79-0.279-1.69-0.529-2.5c-0.9-2.97-0.92-6.16-2.641-8.9v-0.02c-0.42-0.43-0.739-1.22-1.699-1.18
	c-0.98,0.05-0.271,4.59-0.13,5.03c0.199,0.66,0.55,1.47,0.84,1.94c0.3,0.48,0.869,1.16,1.229,1.93c0.2,0.43,0.36,0.89,0.5,1.37
	c0.15,0.53-0.06,1.67,0.521,3.37c0.42,1.22,1.76,2.35,2.359,3.6c0.601,1.27,1.98,2.8,2.84,2.5c0.87-0.3-0.12-2.41-1.33-3.73
	c-1.21-1.34-1.89-3.22-1.96-3.4 M300.94,70.84c-0.519-1.128-1.202-2.173-2.03-3.1c-1.33-0.979-1.789-1.86-1.699-3.56
	c0.069-1.36,0.43-2.31-1.36-3.04c-0.18-0.07-1.22-3.79-2.399-5.24c-1.131-1.39-2.051-1.59-2.811-1.31
	c-0.77,0.27-1.96,2.18-1.28,3.12c0.971,1.37,2.86,2.76,3.66,4.22c0.44,0.82,0.2,2.08,0.62,2.92c0.351,0.69,1.16,0.35,1.37,1.12
	c0.2,0.77,1.92,5.47,3.37,6.1c0.3,0.13,1.35,1.15,1.979,0.98c0.63-0.16,0.84-1.5,0.58-2.2 M308.56,72c-0.04-0.56-2.5,0.8-5.01,1.54
	c-0.9,0.27-3.48,0.67-4.681,1.37c-0.729,0.42-0.699,0.92-0.409,1.41c0.3,0.5,3.64-0.2,5.979-1.26c1.98-0.89,4.19-2.15,4.12-3.05
	 M327.03,125.94c-2-6.95-2.899-13.26-5.66-20.02c-2.14-5.22-3.659-10.68-5.899-15.88c-1.9-4.39-4.17-8.6-5.32-13.32
	c-0.16-0.63-1.56-1.5-2.64-1.2c-0.54,0.14-1.7,0.82-1.87,1.65c-0.141,0.62,0.59,1.43,0.77,1.59c2.101,1.88,2.971,4.39,3.57,7.03
	c0.37,1.58,0.96,3.08,1.84,4.45c3.03,4.71,10.13,24.75,11.38,28.73c1,3.19,0.641,5.23,0.48,5.96c-0.28,1.26-2.101,1.3-2.811,2.2
	c-0.779,0.99-0.729,2.04,0.261,2.46c1.18,0.52,2.479,1.47,3.93,0.54c1.78-1.15,2.479-2.41,1.97-4.2 M318.329,122.1
	c-0.777-1.113-1.887-1.953-3.17-2.4c-2.02-0.68-6.47,0.27-7,0.26c-1.149-0.03-2.229,0.34-3.42,0.19
	c-1.119-0.157-2.209-0.484-3.229-0.97c-6.23-2.9-11.82-6.89-17.79-10.24c-5.41-3.04-10.43-6.79-15.85-9.84
	c-6.181-3.49-11.801-7.74-17.58-11.8c-1.03-0.72-1.9-1.68-2.91-2.43c-1.28-0.94-3.16-2.13-4.26-3.69
	c-1.461-2.07-2.051-4.48-2.82-4.62c-1.97-0.2-2.66,5.39-3.18,6.67c-0.181,0.46-0.45,2.31,0.88,3.38c1.41,1.13,2.5-0.48,4.949,2.02
	c2.011,2.05,4.37,3.64,6.641,5.34c3.55,2.66,7.43,4.84,11.17,7.23c4.89,3.11,9.64,6.45,14.71,9.27
	c4.46,2.48,22.819,11.35,24.16,12.08c0,0,4.579,3.23,5.55,4.08c1.939,1.577,3.381,3.681,4.149,6.06c0.44,1.22,2.721,2.24,3.82,1.85
	c0.37-0.13,2.73-0.22,3.46-2.64c0.19-0.62-0.21-0.94-0.4-1.4c-0.199-0.5-1.38-2.63-1.21-3.12c0.25-0.72,0.69-1.18,2.091-1.28
	C318.49,126,319.01,123.24,318.329,122.1 M78.7,347.9c-0.23,1.6,0.069,1.85,1.64,1.209c1.58-0.629,3.08-0.77,4.479,0.391
	c0.221,0.18,0.46,0.34,0.761,0.18c0.35-0.189,0.35-0.529,0.3-0.85c-0.07-0.37-0.101-0.83-0.33-1.07c-2-2.061-2.32-4.72-5.06-6.23
	c-0.575-0.684-0.874-1.557-0.841-2.449c0.198-1.02,0.708-1.953,1.46-2.67c0.7-0.53,4.801-5.91-0.67-5.91
	c-1.59,0.65-3.75,1-4.649,3.279c-0.48,1.221-1.03,2.4-1.38,3.67c-0.261,0.951-0.08,1.57,0.619,2.361
	C77.21,342.279,79.21,344.27,78.7,347.9 M91.9,391.25c0.03-1.2,0.04-2.48-0.3-3.6c-0.66-2.201-1.63-4.881-0.82-6.631
	c0.82-1.74-1.369-7.879-0.42-11.56c0.341-1.3,1.061-2.569,0.851-3.94c-0.24-1.479,0-2.879,0.26-4.299
	c0.34-1.781-0.26-3.74,1.13-5.281c0.2-0.27,0.62-0.689,0.12-1.569s-2.44-1.479-2.62-1.57c-1.25-0.659-2.12-0.2-2.84,0.86
	c-0.28,0.4-0.46,1.07-1.11,0.869c-0.729-0.229-0.43-0.939-0.46-1.469c-0.069-0.92-0.29-1.801-1.13-2.301
	c-2.53-1.449-6.54,0.211-7.5,2.98c-0.58,1.65-0.76,2.619-2.97,1.359c-0.91-0.52-1.521-0.15-1.86,0.771
	c-0.279,0.771-0.38,1.601,0.04,2.319c1.7,2.951,1.34,6.021,0.67,9.131c-0.173,1.172-0.802,2.229-1.75,2.939
	c-0.489,0.35-0.819,0.84-0.739,1.43c0.18,1.34,0.09,2.621-0.101,3.98c-0.2,1.5-0.51,2.82-1.26,4.07
	c-0.759,1.185-1.31,2.49-1.63,3.859c-0.101,0.461-0.05,1,0.569,0.711c1.351-0.601,2.761-1.16,2.881-3.041
	c0.1-1.439,0.29-2.939,1.25-4.109c1.25-1.52,1.569-3.42,2.25-5.17c1.29-3.32,2.01-6.811,2.88-10.26c0.1-0.36,0.14-0.99,0.72-0.771
	c0.45,0.16,0.68,0.75,0.4,1.19c-0.521,0.82-0.381,1.699-0.48,2.58c-0.42,3.67-0.92,7.319-2.78,10.64c-0.77,1.38-1,3-1.26,4.54
	c-0.229,1.43-0.35,2.85-1.03,4.18c-0.804,1.586-1.476,3.234-2.01,4.93c-0.1,0.32-0.14,0.67,0.14,0.92
	c0.24,0.221,0.591,0.201,0.75-0.029c0.551-0.75,1.4-1.2,1.811-2.11c0.72-1.601,1.57-3.11,1.43-5c-0.069-0.899,0.42-1.79,0.891-2.63
	c0.569-1,1.47-1.971,1.47-3.141c0-2.209,0.84-4.209,1.33-6.299c0.58-2.451,1.1-4.94,2.13-7.25l0.26-0.641c0,0,0.601-0.97,0.851,0.28
	c0,0.14,0.02,0.3,0.05,0.47c0.399,2.141-0.04,4.18-0.42,6.24c-0.521,2.85-1.45,7.58-1.891,8.47c-0.439,0.899,0.04,1.521-0.239,2.08
	c-0.301,0.601-0.841,4.101-1.051,5.13c-0.159,0.79-0.859,1.4-1.22,2.061c-0.78,1.4-0.9,3-1.17,4.619c-0.08,0.461-0.04,0.86,0.48,1
	c0.5,0.15,0.88,0,1.18-0.479c1.388-2.224,2.151-4.78,2.21-7.399c0.04-1.4,0.7-2.621,1.15-3.881c0.06-0.15,0.97-0.91,1.18-2.119
	c0.17-0.961-0.2-2.431-0.17-2.65c0.488-3.592,1.274-7.139,2.35-10.6c0.24-0.811,0.8-2.271,1.3-2.09
	c0.511,0.199,0.301,1.35,0.221,2.059c-0.471,4.07-0.78,8.33-2.341,12.17c-0.1,0.23-0.699,3.66-0.75,3.841
	c-0.353,1.123-0.538,2.292-0.55,3.47c0.085,1.03-0.051,2.066-0.399,3.04c-0.5,1.16-0.07,2.341,0.43,3.45
	c0.22,0.471,0.14,0.9,0.14,1.42c0,1.26,1.25,1.82,2.261,2.18c0.869,0.311,1.399-0.4,1-1.26c-0.351-0.79-0.631-1.55-0.881-2.32
	c-0.239-0.729-0.119-1.58-0.319-2.34c-0.101-0.369-0.3-0.959-0.4-1.34c-0.191-0.627-0.26-1.287-0.2-1.939
	c0.051-0.76-0.04-1.53,0.181-2.291c0.25-0.84,0.739-1.489,0.95-2.35c0.21-0.869,0.479-2.01,0.5-2.89
	c0.06-3.671,0.689-7.04,1.76-10.479c0.149-0.5,0.2-1.4,1.09-1.101c0.7,0.239,0.6,0.96,0.47,1.579
	c-0.46,2.301-1.149,4.531-1.76,6.781c-0.36,1.34-0.1,2.779-0.14,4.129c-0.051,1.431-0.021,2.971,0.649,4.391
	c0.561,1.15,0.36,2.189,0.181,3.5c-0.131,0.93-0.12,2.07,0.539,2.779c0.801,0.851,1.221,1.631,1.601,2.721c0.37,1,1.6,0.9,2.46,0.5
	c0.96-0.439,0.84-0.971,0.29-1.66c-0.18-0.23-0.73-0.449-0.72-0.76 M95.74,342.45c-1.01-0.14-4.159,0.47-5.43,0.17
	c-1.27-0.3-3.64-1.341-5.01-0.72c-1.38,0.609,0.01,2.83,1.1,3.14c3.28,0.96,2.61,2.11,2.7,2.7c0.08,0.58-0.3,2.08,0,2.9
	c0.12,0.359,0.88,0.369,1.72,0.709c1.101,0.451,2.33,1.121,2.5,0.521c0.16-0.54,0.181-1.95,0.841-3.45
	c0.619-1.42,1.869-2.9,2.47-4.25C97.14,343,97.05,342.62,95.74,342.45 M246.93,35.83c-0.96,1.5-3.5,2.2-3.6,3.44
	c-0.271,3.7-2.67,0.5-3.61,1.45l-0.17,0.13c-1.5,1.55-2.23,0.15-2.8-0.88c-1.061-1.93-1.99-3.94-2.351-6.15
	c-0.199-1.28-0.91-1.75-2.149-1.67c-0.65,0.04-3.931,3.1-4.2,3.98c-0.98,3.15-1.85,3.5-4.67,1.89c-0.51-0.3-1.44-0.4-1.061,0.23
	c0.75,1.24,0,2.73,1.07,3.87c2.42,2.58,4.1,5.67,5.91,8.68c1.56,2.6,3.63,4.76,7.55,4.68c0.04-0.02,0.561-0.17,1.101-0.3
	c1.729-0.46,2.859-1.88,4.319-2.77c2.96-1.82,6.44-1.98,9.5-3.38c2.74-1.25,3.01-2.93,0.58-4.69c-1.429-0.991-2.366-2.544-2.58-4.27
	c-0.2-1.37-0.5-2.72-1.12-3.98C248.21,35.19,247.49,34.95,246.93,35.83 M246.26,27.62c-1.146-1.118-2.337-2.189-3.57-3.21
	c-0.37-0.32-1.63-2.34-2.739-4.09c-0.891-1.4-2.141-4.21-3.211-5.72c-1.43-2-2.76-2.61-4.67-3.4c-0.369-0.13-8.47-9.95-13.97-10.32
	c-7.85-0.54-15.54-0.54-23.01,2.34c-1.44,0.56-2.74,1.11-3.59,2.54c-0.44,0.75-1.33,1.15-2.13,1.59
	c-3.957,2.146-7.382,5.153-10.021,8.8c-1.564,2.173-2.854,4.531-3.84,7.02v-0.01c-0.04,0.08-1.2,3.75-1.46,5.54
	c-0.54,2.34,0.3,7.1,0.85,10.21c0.54,3.12,2.801,7.8,5.13,10.67c2.341,2.89,10.671,7.01,15.801,9.04
	c11.37,3.27,13.859-4.05,14.97-4.9c1.1-0.86-3.4-0.63-3.99-1.6c-0.26-0.45-0.68-1.45-0.31-2c0.439-0.64,1.729-0.78,2.229-0.65
	c0.8,0.21,1.7,0.26,2.3,0.87c1.221,1.25,3.29,2.23,4.131,1.06c1.21-1.68,2.829-0.98,4.06-1.76c0.1-0.06,0.14-0.24,0.17-0.37
	c0.521-2.1,0.8-4.22,0.4-6.36c-0.13-0.7-0.511-1.5-1.221-0.36c-0.35,0.57-0.699,0.91-1.3,0.5c-0.7-0.5-0.97-1.271-0.47-1.99
	c0.58-0.84,1.37-1.54,2.06-2.3c0.45-0.51,1.32-0.95,1.13-1.64c-0.699-2.54,1.221-3.95,2.5-5.33c2.28-2.45,2.48-5.19,1.421-7.87
	c-1.301-3.31,0.319-5.73,1.659-8.32c0.271-0.51,0.75-1.1,1.48-0.9c0.6,0.18,0.8,0.83,0.8,1.36c0,3.05,1.5,5.34,3.57,7.4
	c1.05,1.05,0.939,2.11-0.03,3.28c-1.879,2.207-3.933,4.26-6.14,6.14c-0.88,0.78-3.04,2.33-2.33,3.11c0.72,0.79,2.5-1.09,3.37-2.04
	c2.93-3.2,4.489-3.55,8.62-3.1c1.18,0.13,3.22-0.27,3.97,1.91c0.1,0.32,0.2,1.23-0.23,1.87c-0.239,0.34-2.06,0.05-2.34,0.27
	c-0.33,0.27,0.9,1.05,1.05,1.17c0.25,0.2,1.851,1.34,2.341,1.29c0.489-0.06,0.899-0.24,0.43-1.37c-0.32-0.81,1.74-0.06,2.3,0.55
	c0.66,0.72,2.06-0.6,2.521-1.13c0.63-0.73,1.649-1.74,2.3-2.45c0.689-0.76,0.45-1.43,0.47-2.07
	C247.75,29.83,247.51,28.86,246.26,27.62 M211.7,63.48c0,0,0.14-0.65,0.979-1.39c0.6-0.52,3.32-2.53,4.19-2.97
	c0.869-0.44,2.199-1.35,2.869-0.96c0.681,0.4,1.381,0.96,1.25,1.52c-0.13,0.56-4.05,1.55-4.64,2.1c-0.6,0.57-1.87,1.9-2.479,2.52
	c-0.69,0.7-0.92,1.07-1.591,0.87c-0.383-0.484-0.591-1.083-0.59-1.7 M231.24,89.54c0,0,2.051-2.76,3.41-1.53
	c1.37,1.229,5.2,2.07,5.73,2.7c0.52,0.65,0.01,0.81-0.351,0.84c-0.359,0.04-5.109-1.15-6.829-1.03
	C231.37,90.66,230.63,91.13,231.24,89.54 M217.36,56.9c1.101-0.42,2.44-0.74,1.12-1.66c-0.68-0.47-2.279-0.16-3,0.56
	c0,0-4.17,3.37-4.68,4.13c-0.35,0.5,0.439,0.7,0.6,0.74c0.391,0.13,5.521-3.59,5.96-3.76 M56.93,160.17
	c-7.29,0.021-13.217-5.873-13.237-13.163s5.873-13.217,13.163-13.237c0.396-0.001,0.79,0.016,1.185,0.05
	c-5.819,1.911-8.987,8.178-7.076,13.997c1.911,5.819,8.178,8.987,13.996,7.076c1.431-0.47,2.751-1.226,3.88-2.223
	c-2.193,4.582-6.821,7.498-11.9,7.5 M78.81,152.85c-1.319-4.44-12.01-18.13-14.26-21.87c-0.83-1.39-2.021-8.35-4.7-11.9
	c-2.25-3-1.72-3.42-1.72-3.62c0-0.44,5.399,0.06,5.51,0.05c1.271-0.15,2.55-0.771,3.6-0.67c1.04,0.1,2.32,0.54,3.301,1.59
	c0.58,0.61,1.739,3.22,1.939,1.87c0.146-1.063-0.027-2.146-0.5-3.11c-1.229-2.6-3.88-3.97-6.8-5.03c-1.26-0.45-4.71-0.59-6.15,0.57
	c-0.699,0.57-1.079,1.4-1.609,2.1c-0.04,0.05-0.75,0.85-1.141,0.72c-0.029,0,0.12-0.71-0.159-1.2c-0.287-0.407-0.715-0.692-1.2-0.8
	c-1.173-0.08-2.336,0.26-3.28,0.96c-1.53-1.74-4.68-2.86-6.24-3.53c-3.479-1.48-11.08-0.27-11.08-0.27
	c-0.979,4,6.33,6.32,9.271,6.45c1.42,0.06,2.6-0.45,3.9-0.6c1.14-0.13,2.38,0,3.539,0.2c0.07,0.22,0.171,0.44,0.301,0.68
	c0.239,0.4,0.56,0.67,0.92,0.82h-0.01c-0.4,0.2-3.37,1.9-5.11,5.01c-1.98,3.55-3.96,8.3-4.63,9.71c-1.26,2.64-8.29,13.86-9.79,15.47
	c-0.738,0.746-1.35,1.607-1.811,2.55c-1.64,3.49,0.021,7.83,1.08,11.44c0.7,2.36,3.46,3.59,5.55,4.78
	c2.131,1.22,3.74,2.73,6.03,3.38c3.601,1.02,7.46,0.48,11.141,0.19c7.539-0.6,16.199,1.48,20.63-6.33
	C76.89,159.71,79.77,156.07,78.81,152.85 M340.329,51.98c-2.119,0.07-4.3,2.64-4.3,2.64s-17.96,5.69-28.39,8.68
	c0.02,1.55,0.29,2.6,1.41,3.75c0.26,0.26,0.5,0.53,0.729,0.8c12.101-3.1,27.67-6.49,29.88-8.17
	C342.42,57.58,342.449,51.9,340.329,51.98 M45.42,116.39C25.1,122.33,0,129.78,0,129.78s0.1,3.7,1.93,2.78
	c1.83-0.93,15.54-4.88,15.54-4.88s4.8,0.14,5.22-0.8c1.05-0.54,9.94-3.4,21.44-6.95c1.489-1.354,3.122-2.542,4.87-3.54
	c-0.73-0.36-2.5-0.1-3.57,0 M189.25,76.8c-5.57,0.84-34.061,2.66-34.061,2.66l-3.68-1.16c0,0-2.47,1.54-1.51,2.13
	c0.95,0.6-10.08,3.16-10.08,3.16s-2-0.45-1.62,1.27c-3.3,0.56-11.73,3.17-11.73,3.17S112.63,99.8,107.67,99.86
	c-4.95,0.06-30.38,6.65-37.48,9.45l-1.35,0.35c0.979,0.71,2.18,1.22,3.27,1.82c15.87-4.68,29.65-8.52,30.66-8.2
	c2.4,0.78,5.521,0.23,8.91-1.06c3.39-1.3,18.96-11.84,18.96-11.84l23.72-6.57c0,0,36.971-5.55,55.341-4.18
	c1.069-1.1,2.14-2.25,2.699-3.8C206.99,75.6,199.63,75.82,189.25,76.8 M283.46,70.64c-0.601,0.05-3.2,0.35-3.2,0.35
	s-27.3,2.521-42.58,3.17c1.9,1.47,5.15,2.28,6.71,3.96c10.4-0.45,31.36-3.36,41.55-4.14C284.31,72.56,284.63,72.24,283.46,70.64"/>
</svg>
